<?xml version="1.0" encoding="UTF-8" standalone="no"?>
<!DOCTYPE svg  PUBLIC '-//W3C//DTD SVG 1.1//EN'  'http://www.w3.org/Graphics/SVG/1.1/DTD/svg11.dtd'>
<svg version="1.1" xmlns="http://www.w3.org/2000/svg">
<defs>
<font id="Cachet-Book" horiz-adv-x="1204">
<font-face panose-1="2 15 5 3 3 4 4 4 2 4" descent="-410" unicode-range="U+0020-2219" underline-position="-599" ascent="1638" font-weight="400" units-per-em="2048" font-family="Cachet Book" bbox="-39 -432 1845 1876" cap-height="1368" x-height="952" underline-thickness="223"/>
<missing-glyph/>
<glyph glyph-name="space" unicode=" " horiz-adv-x="590"/>
<glyph glyph-name="exclam" d="M371 1317v-2v-2l-21 -928q-2 -36 -10.5 -47.5t-34.5 -11.5h-33q-48 0 -58.5 9t-12.5 50l-19 928v6v2q0 30 10.5 38.5t43.5 8.5h90q45 0 45 -51zM424 86q0 -15 -10 -27l-111 -110q-10 -10 -24 -10q-17 0 -27 10l-111 110q-10 12 -10 27t10 27l111 110q10 10 24 10 q17 0 27 -10l111 -110q10 -12 10 -27z" unicode="!" horiz-adv-x="551"/>
<glyph glyph-name="quotedbl" d="M545 1507v-2v-6l-21 -270q-3 -37 -10.5 -48.5t-34.5 -11.5h-30q-28 0 -39.5 11t-14.5 49l-20 270v12q0 27 11 35t42 8h72q20 0 32.5 -13t12.5 -34zM268 1507v-2v-6l-20 -270q-3 -37 -11 -48.5t-34 -11.5h-31q-29 0 -39.5 11.5t-13.5 48.5l-21 270v14q0 27 11.5 34t42.5 7 h69q47 0 47 -47z" unicode='&quot;' horiz-adv-x="643"/>
<glyph glyph-name="numbersign" d="M1016 952l-27 -123h-135l-68 -301h132l-27 -122h-131l-76 -343h-135l76 343h-320l-78 -343h-139l80 343h-139l28 122h138l67 301h-137l29 123h135l78 340h135l-74 -340h322l73 340h135l-77 -340h135zM719 829h-320l-67 -301h321z" unicode="#" horiz-adv-x="1047"/>
<glyph glyph-name="dollar" d="M909 408q0 -92 -6.5 -166.5t-28.5 -116.5q-36 -73 -113 -104.5t-177 -36.5v-127q0 -34 -9.5 -47t-35.5 -13h-31q-28 0 -34.5 9t-6.5 51v125q-132 2 -277 16q-42 3 -56.5 10.5t-14.5 28.5v72q0 38 6.5 52.5t34.5 14.5q36 0 89.5 -5t91 -7.5t126.5 -3.5v465q-76 32 -100 45 q-109 51 -155 87t-62.5 96t-16.5 181q0 67 4 111.5t21 88.5t53 75q43 40 102.5 55t153.5 18v129q0 36 10 46t43 10h19q45 0 45 -56v-129q84 0 227 -10q42 -3 57 -10t15 -29v-71q0 -41 -6.5 -54.5t-34.5 -13.5q-34 0 -54.5 2.5t-56 5t-110.5 2.5h-37v-422l4 -2 q167 -84 218 -116.5t77 -88t26 -167.5zM467 834v372q-66 -1 -95.5 -21t-36.5 -56.5t-7 -114.5q0 -51 5.5 -77.5t24 -44t62.5 -38.5q12 -5 26 -11zM715 334q0 87 -4.5 122.5t-23.5 57.5t-66 43l-37 16v-411q74 6 102.5 41.5t28.5 130.5z" unicode="$" horiz-adv-x="1038"/>
<glyph glyph-name="percent" d="M682 1077q0 -163 -73.5 -240t-227.5 -77q-142 0 -212.5 78.5t-70.5 236.5q0 159 70.5 237.5t214.5 78.5q78 0 133.5 -20t93 -59.5t55 -97.5t17.5 -137zM532 1071q0 101 -26 146q-14 25 -38.5 34t-80.5 9q-55 0 -77.5 -8.5t-39.5 -34.5q-22 -42 -22 -142q0 -97 22 -143 q17 -25 42 -34t77 -9q55 0 79 9.5t38 33.5q26 47 26 139zM1157 1391q0 -7 -4 -15l-741 -1442q-6 -16 -25 -16q-6 0 -14 4l-56 31q-16 6 -16 27q0 6 4 14l742 1442q6 16 26 16q4 0 12 -4l56 -31q16 -6 16 -26zM1350 297q0 -162 -74 -241t-227 -79q-283 0 -283 316 q0 157 71.5 236t215.5 79q297 0 297 -311zM1200 291q0 100 -24 145q-13 24 -36.5 33.5t-82.5 9.5q-57 0 -80.5 -9.5t-36.5 -33.5q-25 -44 -25 -143q0 -100 25 -141q13 -25 37.5 -34t81.5 -9q54 0 78.5 9t38.5 34q24 42 24 139z" unicode="%" horiz-adv-x="1448"/>
<glyph glyph-name="ampersand" d="M1268 82q0 -14 -13 -27l-38 -47q-31 -35 -39 -35q-10 0 -27 17q-94 82 -143 131q-60 -89 -155.5 -121.5t-221.5 -32.5q-105 0 -184 11.5t-143 48.5t-100 107.5t-36 184.5q0 168 58 255.5t206 160.5q-86 95 -131 179.5t-45 189.5q0 289 342 289q137 0 216.5 -24.5 t119 -88.5t39.5 -182q0 -92 -30.5 -158t-91 -120.5t-173.5 -125.5q60 -74 152 -172.5t145 -146.5q34 98 51 284q1 18 9.5 23.5t27.5 5.5h78q17 0 21.5 -10t4.5 -41q0 -54 -10 -129t-28.5 -140.5t-41.5 -111.5q96 -90 144 -133q37 -35 37 -41zM801 1098q0 85 -41.5 115 t-161.5 30q-88 0 -124 -34t-36 -124q0 -41 16 -88t48.5 -93.5t75.5 -84.5q73 37 121.5 72t75 84.5t26.5 122.5zM897 231q-75 70 -131 127.5t-126 137.5t-108 125q-94 -62 -122.5 -85.5t-44 -68.5t-15.5 -131q0 -99 30 -144.5t86 -57t165 -11.5q106 0 167.5 22.5t98.5 85.5z " unicode="&amp;" horiz-adv-x="1444"/>
<glyph glyph-name="quotesingle" d="M268 1507v-2v-6l-20 -270q-3 -37 -11 -48.5t-34 -11.5h-31q-29 0 -39.5 11.5t-13.5 48.5l-21 270v14q0 27 11.5 34t42.5 7h69q47 0 47 -47z" unicode="&apos;" horiz-adv-x="367"/>
<glyph glyph-name="parenleft" d="M594 -276q-123 3 -205.5 40t-130.5 134q-67 135 -89 345.5t-22 438.5q0 86 4 190.5t16 218.5t35 211.5t56 163.5q49 100 133 138t203 41v-175q-109 -1 -158.5 -56.5t-75.5 -172.5q-28 -125 -34.5 -248.5t-6.5 -308.5t6.5 -308.5t34.5 -248.5q27 -118 76.5 -173t157.5 -56 v-174z" unicode="(" horiz-adv-x="573"/>
<glyph glyph-name="parenright" d="M426 682q0 -120 -3 -212.5t-14.5 -199.5t-34 -205t-57.5 -167q-46 -97 -129 -134t-208 -40v174q74 1 119.5 27.5t71.5 76t44 125.5q41 189 41 557t-41 557q-26 116 -77 172t-158 57v175q121 -3 205 -41t132 -138q47 -92 70.5 -228t31 -274t7.5 -282z" unicode=")" horiz-adv-x="573"/>
<glyph glyph-name="asterisk" d="M631 1225q0 -11 -6.5 -17t-20.5 -14l-117 -68l103 -61q37 -22 37 -41q0 -11 -11 -31l-16 -30q-18 -31 -29 -31q-10 0 -36 16l-109 66v-123q0 -35 -9 -47.5t-36 -12.5h-33q-31 0 -38 9.5t-7 42.5v131l-102 -62q-27 -16 -39 -16q-17 0 -33 27l-18 30q-13 22 -13 33 q0 17 33 35l109 63l-105 64q-35 20 -35 39q0 12 15 37l18 32q11 23 25 23q4 0 28 -12l117 -70v127q0 35 9.5 45t41.5 10h37q23 0 29 -8.5t6 -34.5v-139l106 63q25 15 35 15t18 -8t19 -27l19 -31q8 -13 8 -24z" unicode="*" horiz-adv-x="729"/>
<glyph glyph-name="plus" d="M961 416h-355v-355h-151v355h-357v149h357v355h151v-355h355v-149z" unicode="+" horiz-adv-x="1059"/>
<glyph glyph-name="comma" d="M420 115v-2q0 -34 -45 -120t-101.5 -177t-80.5 -129q-21 -31 -41 -31q-14 0 -29 10l-41 29q-12 7 -12 22q0 9 34.5 58.5t57.5 87.5q45 74 71 133l-96 88q-10 8 -10 25q0 15 10 28l107 117q9 12 22 12q15 0 27 -12l117 -109q10 -8 10 -30v0z" unicode="," horiz-adv-x="518"/>
<glyph glyph-name="hyphen" d="M797 545q0 -50 -8.5 -62t-49.5 -12h-567q-34 0 -43.5 10.5t-9.5 44.5v60q0 47 53 47h567q35 0 46.5 -9.5t11.5 -37.5v-41z" unicode="-" horiz-adv-x="913"/>
<glyph glyph-name="period" d="M391 86q0 -15 -10 -27l-111 -110q-10 -10 -24 -10q-17 0 -27 10l-110 110q-11 11 -11 27t11 27l110 110q10 10 25 10q16 0 26 -10l111 -110q10 -12 10 -27z" unicode="." horiz-adv-x="489"/>
<glyph glyph-name="slash" d="M743 1389q0 -7 -2 -11l-583 -1421q-6 -18 -25 -18h-4q-8 0 -10 2l-82 39q-17 7 -17 24v4q0 8 3 10l583 1424q7 18 25 18q8 0 14 -2l80 -39q18 -7 18 -26v-4v0z" unicode="/" horiz-adv-x="764"/>
<glyph glyph-name="zero" d="M1065 684q0 -112 -11.5 -211.5t-34 -178.5t-54.5 -136q-49 -89 -143.5 -137t-219.5 -48q-126 0 -219.5 48t-144.5 137q-49 87 -75 220.5t-26 305.5q0 174 26 306.5t75 219.5q33 59 85.5 100t123 63t155.5 22q125 0 220 -48t143 -137q32 -57 54.5 -135t34 -178.5 t11.5 -212.5zM870 684q0 294 -51 416q-24 60 -79.5 92.5t-137.5 32.5q-80 0 -137 -32.5t-82 -92.5q-24 -64 -37.5 -175t-13.5 -241t13.5 -241.5t37.5 -174.5q25 -59 82.5 -92t136.5 -33q81 0 137 33t80 92q51 122 51 416z" unicode="0"/>
<glyph glyph-name="one" d="M788 59q0 -35 -9 -47t-36 -12h-73q-47 0 -58.5 9.5t-11.5 49.5v1129q-148 -82 -182 -82q-22 0 -25 35l-6 63v13q0 17 8.5 26.5t30.5 18.5q57 26 111 51t104.5 40t101.5 15q45 0 45 -55v-1254z" unicode="1"/>
<glyph glyph-name="two" d="M1012 53q0 -34 -11.5 -43.5t-39.5 -9.5h-725q-28 0 -38 9.5t-10 41.5v74q0 35 19.5 62.5t93.5 109.5q298 329 338 381q79 101 123.5 181.5t44.5 172.5q0 110 -39.5 151.5t-144.5 41.5q-65 0 -114 -5t-97.5 -14t-70.5 -13.5t-32 -4.5q-15 0 -21.5 9.5t-13.5 43.5l-8 68v12 q0 23 12 33.5t39 13.5q185 27 304 27q129 0 214 -35.5t128 -108.5t43 -182q0 -55 -14 -122t-37.5 -126.5t-61.5 -120.5q-56 -87 -178.5 -215t-333.5 -329q60 3 141 6.5t222 8.5t217 5q34 0 42.5 -13.5t8.5 -51.5v-58z" unicode="2"/>
<glyph glyph-name="three" d="M997 399q0 -221 -102 -323.5t-315 -102.5q-85 0 -173 16t-186 50q-55 20 -55 41q0 6 4 18l27 99q9 30 26 30q7 0 19 -4q99 -38 182 -58t164 -20q83 0 130.5 28t68 83t20.5 139q0 110 -46 157t-107 54.5t-193 9.5h-43h-82q-19 0 -25 4.5t-6 24.5v100q0 18 6.5 24.5 t28.5 6.5h131q116 0 177 22.5t85.5 78t24.5 157.5q0 110 -50 154.5t-176 44.5q-62 0 -111.5 -6.5t-95.5 -15.5t-53 -9q-19 0 -22 29l-10 98v10q0 18 12 27q13 10 101.5 19.5t172.5 9.5q221 0 318.5 -80.5t97.5 -263.5q0 -117 -33.5 -189.5t-113.5 -128.5q74 -27 118.5 -69 t64 -106t19.5 -159z" unicode="3"/>
<glyph glyph-name="four" d="M1034 416q0 -33 -12 -43.5t-39 -10.5h-90v-303q0 -35 -9 -47t-36 -12h-72q-48 0 -59.5 9.5t-11.5 49.5v303h-517q-27 0 -36 29l-15 49q-10 32 -10 54q0 36 18 65l553 778q22 31 37 31h113q45 0 45 -55v-776q33 2 90 2q33 0 42 -14t9 -52v-57zM705 530v553l-406 -571 q86 4 168.5 8t237.5 10z" unicode="4" horiz-adv-x="1139"/>
<glyph glyph-name="five" d="M1001 416q0 -107 -26 -188.5t-79 -139.5t-130 -86.5t-176 -28.5q-82 0 -198 21t-165 45q-16 8 -16 27q0 16 2 26l10 66q9 61 35 61q7 0 70.5 -21.5t129 -38t130.5 -16.5q223 0 223 279q0 123 -35 188q-20 43 -65.5 58.5t-147.5 15.5q-73 0 -152 -12.5t-102 -12.5 q-41 0 -41 39v9l45 598q3 41 13 52t39 11h563q28 0 39.5 -9.5t11.5 -43.5v-58q0 -38 -8.5 -51.5t-40.5 -13.5h-2q-63 0 -122.5 0.5t-112.5 1t-109 2.5t-109 4l-33 -360q78 10 138 10q114 0 196 -16q71 -15 121 -70t77 -143.5t27 -204.5z" unicode="5"/>
<glyph glyph-name="six" d="M1004 416q0 -227 -108.5 -335t-334.5 -108q-86 0 -153.5 17t-120.5 53q-55 38 -87.5 92.5t-47.5 141.5t-15 212q0 410 56 629q18 71 52 124t84 87t118.5 50t158.5 16h29h4q58 0 221 -11q47 -3 57.5 -13.5t10.5 -49.5v-70q0 -41 -35 -41q-4 0 -50.5 6.5t-115 11.5 t-149.5 5q-141 0 -185 -105q-42 -105 -55 -325q184 45 295 45q132 0 214.5 -43.5t119.5 -139t37 -249.5zM815 432q0 133 -44 191.5t-148 58.5q-63 0 -144.5 -14.5t-144.5 -38.5q-6 -102 -6 -195q0 -89 10 -133t37 -84q58 -76 211 -76q88 0 137 27.5t70.5 90t21.5 173.5z" unicode="6"/>
<glyph glyph-name="seven" d="M1040 1319q0 -11 -6 -35l-467 -1169q-26 -69 -43 -92t-43 -23h-102q-39 0 -39 27q0 6 29 79l440 1100q-283 -14 -506 -14h-2q-32 0 -40.5 14.5t-8.5 50.5v58q0 33 11.5 43t39.5 10h629q64 0 86 -9t22 -40z" unicode="7"/>
<glyph glyph-name="eight" d="M1034 350q0 -94 -18 -156.5t-58 -111.5q-48 -59 -130 -84t-226 -25q-143 0 -224.5 25t-131.5 84q-40 49 -58 111.5t-18 156.5q0 93 24 145t72.5 88.5t161.5 102.5q-99 64 -148 113t-66 104.5t-17 149.5q0 98 19 163.5t64 104.5t122 56.5t200 17.5q161 0 248 -31.5 t122.5 -105.5t35.5 -205q0 -114 -51.5 -195.5t-194.5 -167.5q109 -61 163.5 -103t81.5 -97t27 -140zM817 1049q0 43 -5 85.5t-13 57.5q-14 24 -57 35.5t-140 11.5q-96 0 -138.5 -11t-57.5 -36q-10 -16 -15.5 -56t-5.5 -87q0 -60 14.5 -100t41.5 -69t61 -53t92 -63 q60 39 96.5 63t66.5 53.5t45 69.5t15 99zM846 344q0 87 -52.5 137.5t-191.5 126.5q-130 -82 -162 -104t-57 -61.5t-25 -98.5q0 -102 28.5 -147.5t75.5 -55.5t140 -10t140 10t75.5 55.5t28.5 147.5z" unicode="8"/>
<glyph glyph-name="nine" d="M1065 754q0 -146 -5 -239t-14.5 -156.5t-27.5 -116.5q-32 -94 -89 -153t-146 -87.5t-214 -28.5q-184 0 -342 60q-22 8 -22 37q0 14 2 22l14 58q13 57 35 57q-1 0 53 -19.5t130 -35t165 -15.5q152 0 213 92q21 33 31 82t12.5 100.5t7.5 194.5q-144 -53 -288 -53 q-100 0 -165.5 22.5t-113.5 71.5q-45 49 -70.5 129t-25.5 172q0 151 44.5 250t138 148t239.5 49q168 0 262 -59.5t135 -198t41 -383.5zM868 838q0 165 -18 249q-15 71 -76.5 109.5t-157.5 38.5q-83 0 -132 -27t-70 -86.5t-21 -167.5q0 -89 18 -138t62.5 -71t116.5 -22 q136 0 278 59v49v7z" unicode="9"/>
<glyph glyph-name="colon" d="M391 635q0 -17 -10 -27l-111 -110q-11 -11 -24 -11q-16 0 -27 11l-110 110q-11 9 -11 25q0 17 11 26l110 111q10 10 25 10q16 0 26 -10l111 -111q10 -10 10 -24zM391 86q0 -15 -10 -27l-111 -110q-10 -10 -24 -10q-17 0 -27 10l-110 110q-11 11 -11 27t11 27l110 110 q10 10 25 10q16 0 26 -10l111 -110q10 -12 10 -27z" unicode=":" horiz-adv-x="489"/>
<glyph glyph-name="semicolon" d="M397 635q0 -17 -10 -27l-111 -110q-11 -11 -24 -11q-16 0 -27 11l-110 110q-11 11 -11 25q0 15 11 26l110 111q10 10 25 10q16 0 26 -10l111 -111q10 -10 10 -24zM420 115v-2q0 -34 -45 -120t-101.5 -177t-80.5 -129q-21 -31 -41 -31q-14 0 -29 10l-41 29q-12 7 -12 22 q0 9 34.5 58.5t57.5 87.5q45 74 71 133l-96 88q-10 8 -10 25q0 15 10 28l107 117q9 12 22 12q15 0 27 -12l117 -109q10 -8 10 -30v0z" unicode=";" horiz-adv-x="518"/>
<glyph glyph-name="less" d="M1208 125l-1110 469v127l1110 469v-178l-856 -355l856 -354v-178z" unicode="&lt;" horiz-adv-x="1327"/>
<glyph glyph-name="equal" d="M854 582h-756v145h756v-145zM854 264h-756v146h756v-146z" unicode="=" horiz-adv-x="952"/>
<glyph glyph-name="greater" d="M1229 594l-1110 -469v178l856 354l-856 355v178l1110 -469v-127z" unicode="&gt;" horiz-adv-x="1327"/>
<glyph glyph-name="question" d="M815 1067q0 -140 -68.5 -243t-218.5 -261q-28 -29 -40.5 -50t-16.5 -50.5t-4 -89.5q0 -33 -6 -40t-35 -7h-88q-19 0 -27.5 4.5t-11 17.5t-2.5 49v43q0 75 41 140.5t123 158.5t123 162.5t41 159.5q0 89 -41.5 128.5t-132.5 39.5q-92 0 -200.5 -20.5t-100.5 -20.5 q-22 0 -25 41l-6 100v8v2q0 15 7.5 21.5t29.5 9.5q98 15 165 21t140 6q180 0 267 -81t87 -249zM545 86q0 -15 -10 -27l-111 -110q-10 -10 -25 -10q-14 0 -24 10l-111 110q-10 12 -10 27t10 27l111 110q10 10 24 10q15 0 25 -10l111 -110q10 -12 10 -27z" unicode="?" horiz-adv-x="983"/>
<glyph glyph-name="at" d="M1845 461q0 -164 -38.5 -272.5t-117.5 -163t-196 -54.5q-144 0 -231 90q-28 30 -60 84q-97 -91 -184.5 -131.5t-181.5 -40.5q-256 0 -256 283q0 111 38 183t111 100q123 46 436 49q0 131 -18 184q-10 26 -41 41.5t-74 15.5q-61 0 -131.5 -13t-133 -28.5t-73.5 -15.5 q-28 0 -28 39v76q0 28 7 39t23 14q76 15 171 28t155 13q83 0 154 -18t110 -68q40 -47 54 -110t14 -212v-151q0 -80 3.5 -127t12.5 -82q12 -44 47.5 -70t85.5 -26q60 0 93.5 28.5t48 93.5t14.5 181q0 213 -19 357t-81.5 254.5t-188.5 171.5t-336 61q-223 0 -358.5 -48.5 t-207 -147t-97 -247.5t-25.5 -372q0 -173 26 -307t91.5 -231.5t183.5 -149.5t295 -52q113 0 202.5 19t154 43t67.5 24q15 0 25 -31l16 -55q6 -18 6 -28q0 -14 -9 -21t-28 -12q-107 -38 -237 -59t-228 -21q-200 0 -345.5 67t-235 188.5t-131 288t-41.5 367.5q0 242 50 415 t153.5 285t270 167t394.5 55q231 0 389 -62.5t252 -181.5t136 -290.5t42 -405.5zM1165 250v186q-98 4 -135 4q-115 0 -171 -11.5t-76.5 -45t-20.5 -104.5q0 -85 24 -122.5t76 -37.5q60 0 150.5 38.5t152.5 92.5z" unicode="@" horiz-adv-x="2003"/>
<glyph glyph-name="A" d="M1182 29q0 -29 -37 -29h-111q-28 0 -40.5 11.5t-22.5 39.5l-133 395q-24 -1 -75 -1.5t-86.5 -0.5h-78.5h-70.5t-78.5 0.5t-68 1.5l-123 -380q-12 -39 -25.5 -52.5t-46.5 -13.5h-94q-27 0 -35 2.5t-8 13.5q0 14 14 54l418 1235q17 44 31.5 57.5t54.5 13.5h84 q42 0 56.5 -13.5t29.5 -57.5l441 -1256q4 -16 4 -20zM784 606l-178 531l-172 -529h164q129 0 186 -2z" unicode="A" horiz-adv-x="1231"/>
<glyph glyph-name="B" d="M1032 393q0 -194 -86 -295q-22 -25 -51 -44.5t-68.5 -31t-90 -17t-107.5 -5.5h-389q-40 0 -52 11t-12 48v1256q0 35 14 44t50 9h264q169 0 225.5 -6t97.5 -29q136 -70 136 -303q0 -111 -34 -179.5t-114 -117.5q116 -30 166.5 -109.5t50.5 -230.5zM774 1006q0 88 -22 131 q-22 41 -55.5 53t-131.5 12q-44 0 -188 -4v-446h143q63 0 113 8q75 12 108 66.5t33 179.5zM834 393q0 87 -24.5 131.5t-80.5 59.5q-62 16 -197 16h-155v-430q72 -4 184 -4q96 0 148 12q125 28 125 215z" unicode="B" horiz-adv-x="1141"/>
<glyph glyph-name="C" d="M1001 23q0 -21 -15 -28.5t-58 -10.5q-135 -11 -228 -11q-137 0 -235 25t-161 85.5t-96.5 148t-47 194.5t-13.5 242q0 228 33.5 370t100.5 216.5t166.5 101t252.5 26.5q85 0 228 -10q43 -3 58 -10t15 -29v-71q0 -41 -7.5 -54.5t-35.5 -13.5q-33 0 -53.5 2.5t-55.5 5 t-110 2.5q-67 0 -132.5 -7.5t-102.5 -25.5q-62 -29 -94 -95t-43 -164t-11 -248q0 -106 7.5 -188t30.5 -149.5t67.5 -109t113.5 -55.5q51 -10 164 -10q79 0 130 5t89 5q28 0 35.5 -13.5t7.5 -54.5v-71z" unicode="C" horiz-adv-x="1118"/>
<glyph glyph-name="D" d="M1147 668q0 -175 -24 -303.5t-94 -217.5t-200 -122q-61 -15 -122.5 -20t-112.5 -5h-354q-40 0 -52 11t-12 48v1256q0 35 14 44t50 9h354q157 0 255 -25t165 -96.5t100 -211t33 -367.5zM938 664q0 140 -9 232t-40.5 160.5t-97.5 100.5q-39 18 -104 25.5t-132 7.5 q-49 0 -85 -1.5t-57.5 -3.5t-35.5 -3v-996q14 -1 35.5 -3t57.5 -3.5t85 -1.5h51q55 0 111 10q93 19 141 78.5t64 153.5t16 244z" unicode="D" horiz-adv-x="1284"/>
<glyph glyph-name="E" d="M920 53q0 -33 -12 -43t-40 -10h-628q-40 0 -52 11t-12 48v1256q0 35 14 44t50 9h628q29 0 40.5 -10t11.5 -43v-58q0 -38 -8.5 -51.5t-41.5 -13.5h-2q-237 0 -491 8v-412q218 9 446 9h2q33 0 41 -14t8 -52v-29q0 -38 -8.5 -51.5t-40.5 -13.5h-2q-204 0 -446 8v-477 q254 8 491 8h2q34 0 42 -13.5t8 -51.5v-58z" unicode="E" horiz-adv-x="1049"/>
<glyph glyph-name="F" d="M881 1257q0 -38 -8.5 -51.5t-41.5 -13.5h-2q-137 0 -234 2t-218 6v-409q76 2 158.5 3.5t115.5 2t140 0.5h2q33 0 41 -14t8 -52v-29q0 -38 -8.5 -51.5t-40.5 -13.5h-2q-82 0 -129 1t-106.5 2t-105 2t-73.5 1v-584q0 -35 -11 -47t-40 -12h-86q-40 0 -52 11t-12 48v1256 q0 35 14 44t50 9h589q29 0 40.5 -10t11.5 -43v-58z" unicode="F" horiz-adv-x="989"/>
<glyph glyph-name="G" d="M1071 90q0 -37 -11 -50.5t-50 -27.5q-65 -20 -150 -29.5t-160 -9.5q-137 0 -235 25t-161 85.5t-96.5 148t-47 194.5t-13.5 242q0 228 33.5 370t100.5 216.5t166.5 101t252.5 26.5q116 0 295 -16q42 -3 57 -10.5t15 -28.5v-72q0 -40 -6.5 -53.5t-34.5 -13.5q-25 0 -66.5 5 t-89.5 8t-131 3q-67 0 -132.5 -7.5t-102.5 -25.5q-62 -29 -94 -95t-43 -164t-11 -248q0 -106 7.5 -188t30.5 -149.5t67.5 -109t113.5 -55.5q51 -10 164 -10q55 0 131 18v467h-239q-33 0 -42 14.5t-9 50.5v29q0 36 9 51t42 15h389q31 0 41 -12t10 -42v-653z" unicode="G" horiz-adv-x="1208"/>
<glyph glyph-name="H" d="M1141 59q0 -33 -11.5 -46t-39.5 -13h-86q-41 0 -52.5 11t-11.5 48v594q-84 0 -145 -0.5t-136 -1.5q-75 1 -136 1.5t-146 0.5v-594q0 -35 -11 -47t-40 -12h-86q-40 0 -52 11t-12 48v1256q0 35 14 44t50 9h86q32 0 41.5 -11.5t9.5 -41.5v-502q66 1 122.5 1.5t159.5 0.5 t159.5 -0.5t121.5 -1.5v502q0 36 13.5 44.5t50.5 8.5h86q32 0 41.5 -11.5t9.5 -41.5v-1256z" unicode="H" horiz-adv-x="1317"/>
<glyph glyph-name="I" d="M387 59q0 -35 -11.5 -47t-39.5 -12h-86q-39 0 -51.5 11t-12.5 48v1256q0 35 14 44t50 9h86q32 0 41.5 -11.5t9.5 -41.5v-1256z" unicode="I" horiz-adv-x="573"/>
<glyph glyph-name="J" d="M565 662q0 -208 -6 -310q-6 -127 -52.5 -208t-137 -119.5t-232.5 -38.5q-98 0 -114 22q-13 14 -13 70v59q0 17 9.5 27t23.5 10t39 -4t76 -4q75 0 116.5 19t59.5 63q19 46 25 123t6 266v557q-27 -2 -160 -2q-33 0 -42 14.5t-9 50.5v58q0 33 11.5 43t39.5 10h311 q31 0 40 -11.5t9 -41.5v-653z" unicode="J" horiz-adv-x="713"/>
<glyph glyph-name="K" d="M1133 29q0 -29 -37 -29h-140q-34 0 -51 7.5t-45 37.5l-483 520v-506q0 -35 -11 -47t-40 -12h-86q-40 0 -52 11t-12 48v1256q0 35 14 44t50 9h86q32 0 41.5 -11.5t9.5 -41.5v-565l483 573q25 30 39.5 37.5t46.5 7.5h105q39 0 39 -27q0 -11 -15 -30l-526 -629l561 -608 q23 -27 23 -45z" unicode="K" horiz-adv-x="1202"/>
<glyph glyph-name="L" d="M860 53q0 -33 -11 -43t-38 -10h-571q-40 0 -52 11t-12 48v1256q0 35 14 44t50 9h86q32 0 41.5 -11.5t9.5 -41.5v-1145q80 2 165 3.5t120 2t149 0.5h2q32 0 39.5 -13.5t7.5 -51.5v-58z" unicode="L" horiz-adv-x="909"/>
<glyph glyph-name="M" d="M1485 45q0 -29 -13.5 -37t-50.5 -8h-86q-28 0 -39 13t-12 46l-61 1051q-8 -26 -28.5 -100t-33.5 -107q-42 -123 -88.5 -256.5t-86.5 -247t-64 -176.5q-13 -36 -28 -48.5t-50 -12.5h-53q-35 0 -49 12t-27 49q-53 139 -113.5 307.5t-130.5 372.5q-10 27 -23 75.5t-18.5 70 t-15.5 61.5l-66 -1051q-2 -35 -11.5 -47t-39.5 -12h-86q-35 0 -49.5 8t-14.5 37v14l105 1256q3 35 15.5 44t47.5 9h115q33 0 46 -9t22 -34q107 -283 319 -905q192 563 318 905q9 25 22 34t47 9h115q35 0 46.5 -8.5t14.5 -44.5l105 -1256v-14z" unicode="M" horiz-adv-x="1632"/>
<glyph glyph-name="N" d="M1198 59q0 -35 -11.5 -47t-39.5 -12h-68h-14h-2q-22 0 -37 5.5t-31 25.5q-133 190 -637 975v-947q0 -35 -11.5 -47t-39.5 -12h-86q-40 0 -51.5 11t-11.5 48v1256q0 36 13 44.5t50 8.5h58q35 0 47.5 -4.5t25.5 -24.5q26 -38 107 -159t165.5 -250.5t187 -286.5t185.5 -283 v955q0 36 13 44.5t49 8.5h88q32 0 41.5 -11.5t9.5 -41.5v-1256z" unicode="N" horiz-adv-x="1354"/>
<glyph glyph-name="O" d="M1237 682q0 -80 -5.5 -155.5t-18.5 -138t-39 -126.5t-70 -123q-75 -98 -175.5 -140t-236.5 -42t-236.5 42t-174.5 140q-54 73 -84.5 162t-40 180t-9.5 201t10 201.5t39.5 181t84.5 162.5q75 102 175 141t236 39t236 -39.5t176 -140.5q44 -57 70 -122t39 -128.5t18.5 -139 t5.5 -155.5zM1026 682q0 275 -49 387q-70 160 -285 160q-214 0 -284 -160q-50 -114 -50 -387q0 -271 50 -385q37 -86 111 -123t173 -37q215 0 285 160q49 112 49 385z" unicode="O" horiz-adv-x="1384"/>
<glyph glyph-name="P" d="M1034 899q0 -109 -16.5 -185t-51 -127.5t-87.5 -78.5q-51 -25 -110.5 -34t-164.5 -9h-227v-406q0 -35 -11 -47t-40 -12h-86q-40 0 -52 11t-12 48v1256q0 35 14 44t50 9h374q102 0 161.5 -6.5t92 -24.5t70.5 -59q96 -107 96 -379zM836 915q0 217 -74 259q-39 20 -148 20 h-8h-22q-73 0 -207 -4v-551h266q64 0 102.5 13t59.5 42q19 30 25 75.5t6 145.5z" unicode="P" horiz-adv-x="1122"/>
<glyph glyph-name="Q" d="M1237 682q0 -80 -5.5 -155.5t-18.5 -138t-39 -126.5t-70 -123q-61 -81 -142.5 -124.5t-183.5 -53.5q5 -33 21 -63q36 -80 182 -80q41 0 69 2t42 2q19 0 24.5 -12.5t5.5 -57.5v-45q0 -40 -24.5 -51.5t-106.5 -11.5q-133 0 -220 33t-134.5 104t-61.5 184q-92 15 -163.5 56 t-130.5 118q-54 73 -84.5 162t-40 180t-9.5 201t10 201.5t39.5 181t84.5 162.5q75 102 175 141t236 39t236 -39.5t176 -140.5q44 -57 70 -122t39 -128.5t18.5 -139t5.5 -155.5zM1026 682q0 275 -49 387q-70 160 -285 160q-214 0 -284 -160q-50 -114 -50 -387q0 -271 50 -385 q37 -86 111 -123t173 -37q215 0 285 160q49 112 49 385z" unicode="Q" horiz-adv-x="1384"/>
<glyph glyph-name="R" d="M1104 27q0 -27 -37 -27h-121q-35 0 -53.5 7.5t-42.5 37.5l-356 479h-117v-465q0 -35 -11 -47t-40 -12h-86q-40 0 -52 11t-12 48v1256q0 35 14 44t50 9h374q102 0 161.5 -6.5t92 -24.5t70.5 -59q96 -107 96 -379q0 -153 -42 -228.5t-111 -111.5q-59 -30 -150 -33l352 -452 q21 -27 21 -47zM836 915q0 217 -74 259q-39 20 -148 20h-8h-22q-73 0 -207 -4v-492h266q123 0 162 56q17 24 24 57.5t7 103.5z" unicode="R" horiz-adv-x="1194"/>
<glyph glyph-name="S" d="M909 408q0 -92 -6.5 -166.5t-28.5 -116.5q-44 -90 -145 -116.5t-244 -26.5q-114 0 -295 16q-42 3 -56.5 10.5t-14.5 28.5v72q0 38 6.5 52.5t34.5 14.5q37 0 119 -8t237 -8q79 0 120.5 10.5t60 48t18.5 115.5q0 87 -4.5 123t-24 58.5t-65.5 41.5q-207 91 -254 113 q-109 51 -155 87t-62.5 96t-16.5 181q0 67 4 111.5t21 88.5t53 75q53 49 127.5 61t220.5 12h4h2h17q82 0 229 -10q42 -3 57 -10t15 -29v-71q0 -41 -6.5 -54.5t-34.5 -13.5q-34 0 -54.5 2.5t-56 5t-110.5 2.5q-36 1 -68 1.5t-78 0.5q-70 0 -101 -20t-38.5 -56.5t-7.5 -115.5 q0 -51 5.5 -77.5t24 -44t62.5 -38.5q42 -18 91 -39.5t77 -34.5q116 -51 170.5 -79.5t88.5 -64.5t48 -89t14 -139z" unicode="S" horiz-adv-x="1038"/>
<glyph glyph-name="T" d="M1034 1257q0 -38 -9 -51.5t-42 -13.5q-144 0 -336 4v-1137q0 -35 -11.5 -47t-39.5 -12h-86q-39 0 -51.5 11t-12.5 48v1137q-192 -4 -335 -4q-34 0 -43 14.5t-9 50.5v58q0 33 12 43t40 10h872q28 0 39.5 -9.5t11.5 -43.5v-58z" unicode="T" horiz-adv-x="1094"/>
<glyph glyph-name="U" d="M1182 860q0 -224 -4.5 -326.5t-20.5 -195.5q-24 -167 -115 -262q-35 -38 -86.5 -61.5t-124.5 -34.5t-167 -11q-92 0 -165.5 11t-125 34.5t-86.5 61.5q-91 95 -115 262q-15 93 -20 195.5t-5 326.5v455q0 35 14 44t50 9h86q32 0 41.5 -11.5t9.5 -41.5v-635q0 -125 4.5 -199 t13.5 -117t29 -88q21 -48 54.5 -74.5t86.5 -39t128 -12.5q115 0 178 29.5t92 96.5q27 59 37 139t10 265v635q0 36 14.5 44.5t51.5 8.5h86q32 0 40.5 -11.5t8.5 -41.5v-455z" unicode="U" horiz-adv-x="1329"/>
<glyph glyph-name="V" d="M1223 1352q0 -16 -15 -54l-417 -1235q-16 -44 -31.5 -57.5t-54.5 -13.5h-95q-27 0 -42.5 6t-25 20.5t-20.5 44.5l-440 1256q-4 16 -4 20q0 29 39 29h123q29 0 41 -11t22 -40l359 -1086l346 1072q12 39 25 52t46 13h101q27 0 35 -2.5t8 -13.5z" unicode="V" horiz-adv-x="1303"/>
<glyph glyph-name="W" d="M1620 1333q0 -4 -4 -24l-270 -1264q-7 -35 -19 -44t-45 -9h-131q-31 0 -42.5 11t-23.5 44q-55 177 -227 784q-142 -527 -225 -784q-10 -31 -22.5 -43t-43.5 -12h-131q-34 0 -44.5 8.5t-18.5 44.5l-273 1264q-2 8 -2 20q0 23 15 31t51 8h102q27 0 36 -11t15 -48l195 -1078 q86 317 139 509.5t88 297.5q15 45 60 45h121q44 0 57 -45q15 -42 53.5 -173.5t76.5 -271t97 -362.5l197 1078q6 35 15 47t36 12h102q66 0 66 -35z" unicode="W" horiz-adv-x="1718"/>
<glyph glyph-name="X" d="M1145 27q0 -27 -35 -27h-125q-25 0 -38 3.5t-22.5 13t-27.5 36.5l-283 455l-299 -455q-25 -38 -37.5 -45.5t-41.5 -7.5h-103q-35 0 -35 29q0 14 15 39l397 606l-383 614q-18 29 -18 47q0 33 43 33h112q57 0 80 -41l291 -467l305 467q27 41 80 41h82q43 0 43 -31 q0 -21 -19 -49l-389 -592l393 -628q15 -28 15 -41z" unicode="X" horiz-adv-x="1243"/>
<glyph glyph-name="Y" d="M1114 1329q0 -13 -12 -39l-406 -758v-473q0 -35 -11.5 -47t-39.5 -12h-86q-40 0 -51.5 11t-11.5 48v455l-414 776q-12 23 -12 45q0 33 43 33h108q32 0 45 -9.5t25 -33.5l305 -588l315 588q14 25 26 34t44 9h88q45 0 45 -33v-6z" unicode="Y" horiz-adv-x="1184"/>
<glyph glyph-name="Z" d="M1049 1341q0 -19 -15 -47l-659 -1140q193 11 349 16.5t257 5.5q34 0 42.5 -13.5t8.5 -51.5v-58q0 -34 -12.5 -43.5t-38.5 -9.5h-819q-43 0 -43 45q0 37 28 86l617 1071q-293 -10 -551 -10q-33 0 -42 14.5t-9 50.5v58q0 33 11.5 43t39.5 10h803q29 0 33 -27z" unicode="Z" horiz-adv-x="1165"/>
<glyph glyph-name="bracketleft" d="M649 -227q0 -33 -12.5 -43.5t-38.5 -10.5h-410q-48 0 -58.5 10t-10.5 50v1814q0 36 10 46t43 10h426q26 0 38.5 -10.5t12.5 -43.5v-43q0 -37 -9 -49t-42 -12q-87 0 -173.5 3.5t-145.5 6.5v-1634q187 10 319 10q34 0 42.5 -12t8.5 -49v-43z" unicode="[" horiz-adv-x="629"/>
<glyph glyph-name="backslash" d="M764 4q-4 -18 -19 -24l-81 -39q-2 -2 -11 -2h-4q-18 0 -24 18l-584 1421q-2 4 -2 11v0v4q3 20 18 26l82 39q4 2 13 2q17 0 24 -18l584 -1424q4 -8 4 -14z" unicode="\" horiz-adv-x="803"/>
<glyph glyph-name="bracketright" d="M512 -221q0 -40 -11.5 -50t-60.5 -10h-409q-26 0 -38.5 11t-12.5 43v43q0 35 8.5 48t42.5 13q132 0 319 -10v1634q-59 -3 -145 -6.5t-174 -3.5q-23 0 -34 6t-14 17.5t-3 37.5v43q0 32 12.5 43t38.5 11h428q32 0 42.5 -10t10.5 -46v-1814z" unicode="]" horiz-adv-x="629"/>
<glyph glyph-name="asciicircum" d="M782 741h-192l-199 414l-198 -414h-193l328 670h127z" unicode="^" horiz-adv-x="901"/>
<glyph glyph-name="underscore" d="M678 -354q0 -50 -8.5 -62t-48.5 -12h-568q-34 0 -43.5 10.5t-9.5 44.5v60q0 47 53 47h568q35 0 46 -9.5t11 -37.5v-41z" unicode="_" horiz-adv-x="678"/>
<glyph glyph-name="grave" d="M399 1169q0 -9 -9 -11.5t-48 -2.5h-59h-7v0q-24 0 -43 10q-12 9 -15.5 13t-19 24t-49.5 68t-38 53q-45 63 -68.5 95.5t-28.5 39.5q-14 17 -14 31q0 10 7.5 15t29.5 6t86 1q58 0 70 -8q26 -22 190 -297q16 -27 16 -37z" unicode="`" horiz-adv-x="399"/>
<glyph glyph-name="a" d="M893 59q0 -35 -9 -47t-36 -12h-74q-47 0 -58 9.5t-11 49.5v43q-174 -129 -332 -129q-128 0 -191 70.5t-63 212.5q0 225 149 283q61 23 172 35.5t265 13.5q0 58 -5 107.5t-16 76.5q-9 26 -40 41.5t-75 15.5q-114 0 -313 -53q-16 -4 -25 -4q-26 0 -26 39v76q0 27 6 38.5 t22 14.5q79 16 174 28.5t154 12.5q81 0 152 -18t110 -68q39 -47 54.5 -109t15.5 -213v-514zM705 250v186q-100 4 -138 4q-115 0 -171 -11.5t-76.5 -45t-20.5 -104.5q0 -85 23.5 -122.5t78.5 -37.5q58 0 150 39t154 92z" unicode="a" horiz-adv-x="1030"/>
<glyph glyph-name="b" d="M942 483q0 -189 -41 -300.5t-132 -161.5t-245 -50q-130 0 -319 29q-28 5 -42 11.5t-20 18t-6 27.5v1256q0 35 9.5 45t43.5 10h91q45 0 45 -55v-359q54 9 94 14.5t93.5 10t98.5 4.5q117 0 190 -50.5t106.5 -159t33.5 -290.5zM752 487q0 129 -23 230q-14 64 -47 87t-111 23 q-48 0 -112.5 -9.5t-132.5 -24.5v-646q132 -24 202 -24q163 0 197 113q27 93 27 251z" unicode="b" horiz-adv-x="1059"/>
<glyph glyph-name="c" d="M795 25q0 -24 -13.5 -30.5t-68.5 -12.5q-72 -9 -168 -9q-133 0 -214.5 22t-127 75.5t-65 149t-19.5 257.5q0 161 19.5 257.5t65 150.5t127 76t214.5 22q68 0 168 -10q58 -6 70 -11.5t12 -29.5q0 -61 -9 -103q-5 -30 -28 -30q-12 0 -117 12t-158 12q-106 0 -139 -53 q-31 -49 -31 -293q0 -67 1.5 -121t4.5 -84q4 -50 21 -81.5t51 -44.5t92 -13q53 0 155 12.5t120 12.5q12 0 20 -8q6 -8 11.5 -44.5t5.5 -80.5z" unicode="c" horiz-adv-x="911"/>
<glyph glyph-name="d" d="M932 59q0 -35 -9 -47t-36 -12h-74q-47 0 -58.5 9.5t-11.5 49.5v7q-87 -51 -155.5 -73t-136.5 -22q-105 0 -180.5 54.5t-113.5 161t-38 257.5q0 535 397 535q58 0 122.5 -8t104.5 -17v359q0 35 10 45t44 10h90q45 0 45 -55v-1254zM743 238v548q-130 37 -233 37 q-64 0 -100 -22q-101 -61 -101 -379q0 -163 45 -232q22 -29 59.5 -48t78.5 -19q55 0 124.5 31t126.5 84z" unicode="d" horiz-adv-x="1069"/>
<glyph glyph-name="e" d="M883 508q0 -63 -7.5 -78.5t-41.5 -15.5h-525q0 -112 11 -174.5t57 -85.5q56 -29 149 -29q70 0 129.5 9.5t119 23.5t71.5 14q15 0 20 -61q2 -15 2 -50q0 -32 -7 -43t-36 -16q-158 -29 -301 -29q-106 0 -189 27t-126 74q-48 51 -69 145t-21 252q0 143 12.5 226.5 t48.5 146.5q78 139 336 139q237 0 311 -137q37 -65 46.5 -144t9.5 -194zM702 649q0 105 -37.5 141.5t-148.5 36.5q-87 0 -131 -19t-60 -67t-16 -143v-41h391q2 37 2 92z" unicode="e" horiz-adv-x="1001"/>
<glyph glyph-name="f" d="M709 1337q0 -55 -7 -110q-3 -21 -20 -21q-16 0 -60 10.5t-110 10.5q-84 0 -102 -23q-13 -13 -18 -48.5t-5 -104.5v-99h213q35 0 46 -9.5t11 -37.5v-28q0 -50 -8.5 -62t-48.5 -12h-213v-744q0 -35 -9 -47t-36 -12h-72q-48 0 -59.5 9.5t-11.5 49.5v744h-58 q-34 0 -43.5 10.5t-9.5 44.5v47q0 47 53 47h58v99q0 98 10.5 142.5t34.5 80.5q43 63 114 86.5t207 23.5q95 0 119.5 -8.5t24.5 -38.5z" unicode="f" horiz-adv-x="709"/>
<glyph glyph-name="g" d="M909 -102q0 -80 -7 -113t-30 -68q-43 -68 -131 -104.5t-213 -36.5q-90 0 -196 11t-174 30q-22 6 -28.5 15.5t-6.5 33.5q0 38 6 76q5 30 9.5 39.5t15.5 9.5q2 0 72.5 -16.5t147.5 -27.5t169 -11q91 0 128.5 24.5t43.5 85.5q6 56 6 164q-156 -35 -272 -35q-92 0 -155.5 28 t-105 87.5t-60.5 149.5t-19 219q0 283 102 403q32 38 64 60.5t72.5 35.5t99.5 19t139 6h28h4q146 0 242 -8q33 -3 41 -13t8 -47v-1017zM721 174v647q-99 6 -197 6q-80 0 -118.5 -18t-61.5 -66q-19 -42 -31 -116t-12 -156q0 -83 12 -172q14 -98 48 -135t114 -37q113 0 246 47 z" unicode="g" horiz-adv-x="1049"/>
<glyph glyph-name="h" d="M913 59q0 -35 -8.5 -47t-36.5 -12h-71q-49 0 -60.5 9.5t-11.5 49.5v551q0 162 -18 189q-25 30 -93 30q-137 0 -288 -112v-658q0 -35 -9 -47t-36 -12h-72q-49 0 -60.5 9.5t-11.5 49.5v1254q0 35 9.5 45t43.5 10h91q45 0 45 -55v-422q65 37 144 65.5t167 28.5 q104 0 166.5 -38.5t86 -98t23.5 -127.5v-662z" unicode="h" horiz-adv-x="1053"/>
<glyph glyph-name="i" d="M352 1167q0 -35 -9 -47t-36 -12h-80q-47 0 -58 9.5t-11 49.5v74q0 35 9.5 45t43.5 10h96q45 0 45 -55v-74zM352 59q0 -35 -9 -47t-36 -12h-80q-47 0 -58 9.5t-11 49.5v838q0 35 9.5 45t43.5 10h96q45 0 45 -55v-838z" unicode="i" horiz-adv-x="510"/>
<glyph glyph-name="j" d="M358 1167q0 -35 -9 -47t-36 -12h-80q-47 0 -58 9.5t-11 49.5v74q0 35 9.5 45t43.5 10h96q45 0 45 -55v-74zM358 -33q0 -151 -16 -217q-18 -75 -97.5 -123.5t-183.5 -48.5h-24q-61 0 -70 16q-4 7 -5 14t-1 40v53q0 51 27 51q14 0 51.5 -7t48.5 -7q31 0 47 10.5t22.5 41.5 t6.5 87v1020q0 35 9.5 45t43.5 10h96q45 0 45 -55v-930z" unicode="j" horiz-adv-x="475"/>
<glyph glyph-name="k" d="M958 20q0 -20 -43 -20h-131q-20 0 -32.5 8t-32.5 31l-393 469v-449q0 -35 -9 -47t-36 -12h-72q-49 0 -60.5 9.5t-11.5 49.5v1254q0 35 9.5 45t43.5 10h91q45 0 45 -55v-680l301 293q19 17 32.5 21.5t45.5 4.5h108q41 0 41 -20q0 -14 -37 -47l-332 -307l463 -541 q10 -15 10 -17z" unicode="k" horiz-adv-x="958"/>
<glyph glyph-name="l" d="M336 59q0 -35 -9 -47t-36 -12h-72q-48 0 -60 9.5t-12 49.5v1254q0 35 10 45t44 10h90q45 0 45 -55v-1254z" unicode="l" horiz-adv-x="483"/>
<glyph glyph-name="m" d="M1354 59q0 -35 -8.5 -47t-36.5 -12h-72q-48 0 -60 9.5t-12 49.5v551q0 159 -18 189q-21 30 -57 30q-81 0 -244 -135v-635q0 -35 -9 -47t-36 -12h-74q-48 0 -59 9.5t-11 49.5v551q0 160 -20 189q-21 30 -57 30q-51 0 -114 -40.5t-130 -94.5v-635q0 -35 -9 -47t-36 -12h-72 q-48 0 -60 9.5t-12 49.5v838q0 35 10 45t44 10h90q45 0 45 -55v-35q68 51 143.5 87t167.5 36q138 0 180 -135q78 57 153.5 96t174.5 39q100 0 149.5 -70t49.5 -194v-662z" unicode="m" horiz-adv-x="1493"/>
<glyph glyph-name="n" d="M924 59q0 -34 -9.5 -46.5t-35.5 -12.5h-72q-49 0 -60.5 9.5t-11.5 49.5v551q0 163 -20 189q-25 30 -92 30q-52 0 -97.5 -16t-88.5 -45.5t-101 -75.5v-633q0 -35 -9 -47t-36 -12h-72q-48 0 -60 9.5t-12 49.5v838q0 35 10 45t44 10h90q45 0 45 -55v-33q78 58 143 89.5 t168 31.5q80 0 136 -23t86 -60t42.5 -82.5t12.5 -98.5v-662z" unicode="n" horiz-adv-x="1061"/>
<glyph glyph-name="o" d="M979 477q0 -138 -24.5 -225t-80.5 -154q-100 -125 -325 -125q-111 0 -193 31t-135 94q-54 66 -78 154.5t-24 224.5q0 94 10.5 162.5t32 120t59.5 98.5q105 125 328 125q224 0 325 -125q39 -48 62 -100.5t33 -119.5t10 -161zM788 477q0 185 -40 264q-26 51 -66 68.5 t-133 17.5t-132.5 -17t-66.5 -69q-41 -81 -41 -264t41 -264q25 -49 67 -66.5t132 -17.5t132 17.5t67 66.5q40 79 40 264z" unicode="o" horiz-adv-x="1098"/>
<glyph glyph-name="p" d="M969 496q0 -78 -5.5 -144t-17.5 -112t-31 -82q-46 -89 -139.5 -137t-218.5 -48q-106 0 -221 31v-360q0 -35 -9 -47.5t-36 -12.5h-72q-48 0 -60 9.5t-12 50.5v1253q0 35 10 45t44 10h90q45 0 45 -55v-35q99 57 177.5 89t160.5 32q67 0 115 -18.5t85 -65.5 q53 -62 74 -150.5t21 -252.5zM778 489q0 65 -6.5 136t-13.5 106q-11 47 -40 71.5t-75 24.5q-59 0 -149.5 -40t-157.5 -85v-538q112 -39 227 -39q62 0 105 18q110 48 110 346z" unicode="p" horiz-adv-x="1087"/>
<glyph glyph-name="q" d="M915 -356q0 -35 -8.5 -47.5t-36.5 -12.5h-71q-49 0 -60.5 9.5t-11.5 50.5v415q-62 -45 -123.5 -65.5t-134.5 -20.5q-182 0 -266 119t-84 369q0 142 23.5 235.5t76.5 163.5q56 74 120 98.5t198 24.5q91 0 159 -3t174 -11q27 -1 36 -9.5t9 -31.5v-1284zM727 236v573 q-130 18 -217 18q-63 0 -99.5 -17t-56.5 -54q-45 -87 -45 -324q0 -151 25 -213q18 -43 59 -68.5t92 -25.5q121 0 242 111z" unicode="q" horiz-adv-x="1063"/>
<glyph glyph-name="r" d="M692 854q0 -37 -8.5 -50t-30.5 -13q-78 0 -125 -8t-87.5 -26t-98.5 -55v-643q0 -35 -9 -47t-36 -12h-78q-48 0 -60 9.5t-12 49.5v838q0 35 10 45t44 10h96q45 0 45 -55v-43q155 111 297 111q53 0 53 -39v-72z" unicode="r" horiz-adv-x="752"/>
<glyph glyph-name="s" d="M809 268q0 -121 -29 -181t-101.5 -83.5t-215.5 -23.5q-175 0 -287 14q-17 3 -21.5 14t-4.5 49q0 23 2 74q0 17 4 22t16 5q-4 0 102 -12.5t215 -12.5q88 0 114 22t26 91q0 74 -17 92q-15 15 -57 30.5t-166 51.5q-163 48 -209 94q-53 53 -53 176q0 139 61 211 q41 45 112 59.5t253 14.5q100 0 149 -4q30 -2 44.5 -7t19 -18.5t4.5 -44.5v-10v0q0 -17 -2 -53q-2 -20 -9 -27.5t-28 -7.5q-18 0 -64 5t-93.5 9t-110.5 4q-76 0 -105.5 -7t-39 -28.5t-9.5 -78.5q0 -39 4 -54q5 -17 19 -27t46.5 -22.5t125.5 -42.5l133 -43q103 -32 137.5 -82 t34.5 -168z" unicode="s" horiz-adv-x="936"/>
<glyph glyph-name="t" d="M662 877q0 -50 -9.5 -62t-48.5 -12h-213v-520q0 -95 12 -119q16 -37 66 -37q20 0 47 5.5t46.5 10t42.5 10t32 5.5q13 0 16.5 -4.5t3.5 -22.5v-78q0 -41 -8 -50.5t-45 -12.5q-108 -10 -174 -10q-72 0 -116 13t-68 46t-33.5 91t-9.5 146v527h-51q-34 0 -44 10.5t-10 44.5 v47q0 47 54 47h51v193q0 35 9.5 45t43.5 10h90q45 0 45 -55v-193h213q35 0 46.5 -9.5t11.5 -37.5v-28z" unicode="t" horiz-adv-x="760"/>
<glyph glyph-name="u" d="M913 55q0 -36 -10 -45.5t-43 -9.5h-90q-45 0 -45 55v33q-52 -39 -89 -62t-94 -41t-126 -18q-154 0 -216.5 76.5t-62.5 187.5v662q0 34 9 46.5t36 12.5h74q48 0 59 -9.5t11 -49.5v-551q0 -163 20 -188q23 -31 92 -31q77 0 137 32t150 105v633q0 34 9 46.5t36 12.5h74 q48 0 58.5 -9t10.5 -50v-838z" unicode="u" horiz-adv-x="1061"/>
<glyph glyph-name="v" d="M891 932q0 -5 -4 -23l-301 -856q-12 -34 -25.5 -43.5t-42.5 -9.5h-84q-36 0 -46.5 8t-22.5 45l-302 858q-4 9 -4 23q0 18 33 18h111q34 0 44.5 -8t20.5 -39l209 -674l211 672q10 33 21 41t45 8h104q33 0 33 -20z" unicode="v" horiz-adv-x="950"/>
<glyph glyph-name="w" d="M1315 922q0 -17 -4 -27l-252 -866q-6 -21 -14 -25t-33 -4h-78q-31 0 -40.5 9t-27.5 59l-164 471l-165 -471q-16 -48 -26 -58t-42 -10h-78q-24 0 -32.5 4.5t-14.5 24.5l-252 866q-4 20 -4 27q0 30 47 30h88q35 0 47 -9.5t19 -43.5l157 -663l162 512q11 28 22 35.5t44 7.5 h55q33 0 46 -8t22 -35l161 -512l156 663q7 34 20 43.5t46 9.5h88q47 0 47 -30z" unicode="w" horiz-adv-x="1403"/>
<glyph glyph-name="x" d="M936 23q0 -12 -8.5 -17.5t-26.5 -5.5h-127q-25 0 -32 3.5t-19 21.5l-215 331l-217 -331q-12 -17 -19.5 -21t-31.5 -4h-125q-21 0 -29 5t-8 18q0 9 11 26t24 34.5t20 27.5l268 368l-245 357q-56 81 -56 94q0 22 35 22h98q38 0 53.5 -10.5t43.5 -56.5l178 -277l176 277 q31 48 45 57.5t57 9.5h93q34 0 34 -22q0 -17 -53 -94l-246 -357l267 -368q55 -75 55 -88z" unicode="x" horiz-adv-x="1014"/>
<glyph glyph-name="y" d="M909 928q0 -2 -18 -58l-434 -1241q-9 -25 -21.5 -32t-46.5 -7h-102q-21 0 -27 4.5t-6 14.5q0 8 12 37l156 383l-340 882q-4 18 -4 21q0 20 37 20h90q45 0 59 -5.5t21 -28.5l219 -668l205 645q12 37 26 47t51 10h88q35 0 35 -24z" unicode="y" horiz-adv-x="967"/>
<glyph glyph-name="z" d="M829 53q0 -34 -12.5 -43.5t-38.5 -9.5h-628q-41 0 -41 41v37q0 36 24 72l467 665q-87 -6 -155.5 -11t-134 -9t-124.5 -4q-33 0 -42 14.5t-9 50.5v43q0 33 11.5 43t39.5 10h596q19 0 25 -6t6 -26v-64q0 -28 -14 -51l-471 -666q282 23 450 23q33 0 42 -14t9 -52v-43z" unicode="z" horiz-adv-x="938"/>
<glyph glyph-name="braceleft" d="M731 -264q0 -21 -29 -21q-109 0 -209 32t-147 108q-27 43 -41 96t-21.5 119.5t-10 124t-5.5 118.5q-6 106 -20 161.5t-47 99t-103 106.5q70 63 103 106.5t47 99t20 161.5q3 61 5.5 118t10 125t21.5 120t41 95q48 78 147.5 109t208.5 31q29 0 29 -21v-59q0 -18 -31 -25 q-87 -15 -142 -33.5t-81 -64.5q-11 -23 -19 -57.5t-15 -91.5t-10 -108.5t-3 -127.5q-2 -103 -15 -156t-46.5 -97.5t-112.5 -123.5q79 -79 112.5 -123t46.5 -97.5t15 -156.5q0 -138 13 -240.5t34 -144.5q26 -46 81 -64.5t142 -33.5q31 -7 31 -25v-59z" unicode="{" horiz-adv-x="713"/>
<glyph glyph-name="bar" d="M170 -225q0 -36 -9.5 -48t-37.5 -12h-51q-49 0 -60.5 9.5t-11.5 50.5v1814q0 36 10 46t43 10h70q47 0 47 -56v-1814z" unicode="|" horiz-adv-x="307"/>
<glyph glyph-name="braceright" d="M614 680q-70 -63 -102.5 -106.5t-47 -101.5t-20.5 -159q-3 -61 -6 -128.5t-8.5 -118.5t-21.5 -111t-41 -100q-48 -76 -148 -108t-209 -32q-30 0 -30 21v59q0 19 32 25q87 15 142 33.5t79 64.5q13 25 24 79.5t17.5 134t6.5 171.5q2 78 8.5 123t26 85t50.5 75.5t91 93.5 q-65 65 -94.5 98.5t-48 73t-25 83.5t-8.5 122q0 92 -6.5 171.5t-17.5 134t-24 79.5q-24 46 -79 64.5t-142 33.5q-32 6 -32 25v59q0 21 30 21q109 0 209 -31t148 -109q25 -40 41 -98.5t21.5 -111t8.5 -120t6 -128.5q6 -101 20.5 -159t47 -101.5t102.5 -106.5z" unicode="}" horiz-adv-x="713"/>
<glyph glyph-name="asciitilde" d="M649 1298q0 -12 -16 -49q-64 -135 -174 -135q-39 0 -72 8.5t-73 25t-60.5 23.5t-44.5 7q-26 0 -42.5 -10.5t-39.5 -39.5q-9 -13 -16 -17.5t-19 -4.5h-67q-16 0 -20.5 3t-4.5 11q0 17 25 60q69 133 172 133q31 0 64 -8t74 -21.5t70.5 -23t47.5 -9.5q36 0 67 49q5 9 10 12 t21 3h72q26 0 26 -17z" unicode="~" horiz-adv-x="649"/>
<glyph glyph-name="uni00A0" unicode=" " horiz-adv-x="590"/>
<glyph glyph-name="exclamdown" d="M424 1233q0 -17 -10 -27l-111 -110q-11 -11 -24 -11q-16 0 -27 11l-111 110q-10 10 -10 25q0 16 10 26l111 111q10 10 24 10q17 0 27 -10l111 -111q10 -10 10 -24zM373 -4q0 -30 -11.5 -38.5t-42.5 -8.5h-90q-45 0 -45 51v2v2l21 928q1 34 10 46.5t35 12.5h33q48 0 59 -9 t12 -50l19 -928v-6v-2z" unicode="¡" horiz-adv-x="551"/>
<glyph glyph-name="cent" d="M788 229q0 -23 -11 -29t-68 -14q-43 -4 -129 -8v-78q0 -34 -9.5 -46.5t-35.5 -12.5h-31q-24 0 -33.5 11t-9.5 48v80q-106 6 -172 32.5t-102.5 80.5t-52 148t-15.5 241q0 148 15.5 241.5t52 149t103 82t171.5 31.5v86q0 35 9.5 45t43.5 10h21q45 0 45 -55v-84 q25 -1 129 -10q53 -6 66 -11.5t13 -29.5q0 -59 -8 -103q-5 -30 -28 -30q-8 0 -172 18v-678q169 18 172 18q15 0 20 -8q6 -7 11 -45.5t5 -79.5zM461 338v690q-93 -3 -123 -53q-31 -49 -31 -293q0 -125 8 -205q8 -75 39 -105.5t107 -33.5z" unicode="¢" horiz-adv-x="907"/>
<glyph glyph-name="sterling" d="M1026 1323q0 -4 -0.5 -7t-1.5 -7l-10 -68q-7 -53 -33 -53q-8 0 -29 5t-64 13.5t-90.5 13.5t-113.5 5q-74 0 -114.5 -22t-57 -70.5t-16.5 -133.5q0 -101 16 -223h260q35 0 46 -9.5t11 -37.5v-31q0 -50 -8.5 -61.5t-48.5 -11.5h-254v-37q0 -82 -14 -187q-8 -52 -22.5 -99.5 t-43.5 -121.5q35 -7 87.5 -24t92 -26t74.5 -9q77 0 138.5 20t112 47t54.5 27q21 0 21 -33v-71q0 -41 -9 -55.5t-46 -35.5q-51 -30 -115.5 -46.5t-124.5 -16.5q-56 0 -93 7.5t-95 24.5t-97.5 26.5t-83.5 9.5q-40 0 -107.5 -18.5t-74.5 -18.5q-17 0 -20 32l-5 76v13 q0 36 15 51q16 16 129 39q18 83 25.5 156.5t7.5 158.5q0 61 -2 111h-76q-34 0 -43.5 10.5t-9.5 44.5v49q0 26 9.5 36.5t30.5 10.5h82q-18 198 -18 268t21 137t55 111q44 55 114.5 79t180.5 24q121 0 305 -27q53 -6 53 -45z" unicode="£" horiz-adv-x="1135"/>
<glyph glyph-name="yen" d="M1114 1333q0 -17 -12 -43l-406 -758v-36h189q34 0 45.5 -9.5t11.5 -37.5v-27q0 -35 -9 -44t-48 -9h-189v-111h189q35 0 46 -9.5t11 -37.5v-27q0 -35 -9 -44t-48 -9h-189v-72q0 -35 -11.5 -47t-39.5 -12h-86q-40 0 -51.5 11t-11.5 48v72h-193q-34 0 -43.5 10.5t-9.5 44.5 v25q0 47 53 47h193v111h-193q-34 0 -43.5 10.5t-9.5 44.5v25q0 47 53 47h193v18l-414 776q-14 27 -14 43q0 35 45 35h108q32 0 45 -9.5t25 -33.5l305 -588l315 588q14 25 26 34t44 9h88q45 0 45 -35z" unicode="¥" horiz-adv-x="1184"/>
<glyph glyph-name="brokenbar" d="M186 760h-116v672h116v-672zM186 -68h-116v672h116v-672z" unicode="¦" horiz-adv-x="256"/>
<glyph glyph-name="section" d="M651 53q0 -34 -12.5 -43.5t-38.5 -9.5h-446q-26 0 -39 10t-13 43v51q0 36 9 51t43 15q42 0 122 -4v1036q-80 -4 -122 -4q-34 0 -43 15t-9 51v51q0 33 12 43t40 10h446q28 0 39.5 -9.5t11.5 -43.5v-51q0 -38 -9 -52t-42 -14q-41 0 -123 4v-1036q82 4 123 4q33 0 42 -14 t9 -52v-51z" unicode="§" horiz-adv-x="754"/>
<glyph glyph-name="dieresis" d="M510 1137q0 -13 -10 -22t-21 -9h-131q-10 0 -19.5 9.5t-9.5 21.5v137q0 13 9 22t20 9h131q12 0 21.5 -8.5t9.5 -22.5v-137zM190 1137q0 -12 -8.5 -21.5t-19.5 -9.5h-133q-12 0 -20.5 9.5t-8.5 21.5v137q0 13 8 22t21 9h133q12 0 20 -9t8 -22v-137z" unicode="¨" horiz-adv-x="510"/>
<glyph glyph-name="copyright" d="M1706 500q0 -239 -48.5 -412.5t-148 -286.5t-252.5 -169t-362 -56q-386 0 -580 227q-70 80 -113.5 178t-63 221t-19.5 287q0 166 19.5 288.5t63 220.5t113.5 178q98 114 240 170.5t342 56.5q514 0 690 -336q119 -230 119 -567zM1507 481q0 90 -9 177.5t-21 143.5 t-32.5 119t-43.5 111q-56 113 -178 170.5t-308 57.5q-185 0 -308.5 -57.5t-182.5 -168.5q-47 -92 -77 -233.5t-30 -311.5q0 -168 30 -310.5t77 -233.5q119 -226 494 -226q181 0 304 57.5t179 170.5q47 100 76.5 232.5t29.5 301.5zM1186 47q0 -32 -60 -35q-91 -6 -161 -6 q-109 0 -166 14q-71 17 -116.5 56.5t-71 101t-34 129t-8.5 154.5q0 152 23.5 244t71.5 143t119.5 69.5t181.5 18.5q70 0 161 -6q34 -3 47 -11t13 -24v-47q0 -29 -7 -42t-32 -13q-21 0 -57 4q-34 4 -97 4q-114 0 -162 -21q-41 -17 -62 -59t-28.5 -106.5t-7.5 -155.5 q0 -73 5.5 -121.5t21.5 -89t45.5 -66t75.5 -35.5q39 -6 112 -6q63 0 97 4q16 2 47 2h2h2h6q26 0 32.5 -12t6.5 -41v-47z" unicode="©" horiz-adv-x="1825"/>
<glyph glyph-name="ordfeminine" d="M621 844q0 -45 -39 -45h-47q-33 0 -44.5 7.5t-11.5 37.5v6q-104 -66 -205 -66q-176 0 -176 174q0 67 27 111.5t78 60.5q75 28 276 31q0 62 -12 92q-11 27 -66 27q-50 0 -90 -7.5t-118 -23.5q-5 -2 -11 -2q-28 0 -28 33v43q0 36 28 41q125 25 213 25q54 0 103 -12t75 -42 q28 -30 38 -66.5t10 -125.5v-299zM479 958v95q-28 2 -78 2q-71 0 -107.5 -6.5t-47 -23.5t-10.5 -54q0 -45 13.5 -63.5t43.5 -18.5q34 0 92 21t94 48z" unicode="ª" horiz-adv-x="739"/>
<glyph glyph-name="guillemotleft" d="M811 131q0 -20 -98 -20q-35 0 -47.5 5.5t-24.5 24.5q-27 44 -84 136t-85 141t-28 59q0 11 34.5 71t85 140.5t77.5 124.5q11 20 24 25.5t48 5.5q98 0 98 -21q0 -6 -4 -18l-182 -328l182 -327q4 -14 4 -19zM457 131q0 -20 -101 -20q-34 0 -46.5 5.5t-24.5 24.5 q-27 44 -84 136t-85 141t-28 59q0 11 34.5 71t85 140.5t77.5 124.5q11 20 24 25.5t47 5.5q101 0 101 -21q0 -9 -6 -18l-181 -328l181 -327q6 -10 6 -19z" unicode="«" horiz-adv-x="940"/>
<glyph glyph-name="uni00AD" d="M797 545q0 -50 -8.5 -62t-49.5 -12h-567q-34 0 -43.5 10.5t-9.5 44.5v60q0 47 53 47h567q35 0 46.5 -9.5t11.5 -37.5v-41z" unicode="­" horiz-adv-x="913"/>
<glyph glyph-name="registered" d="M1706 500q0 -239 -48.5 -412.5t-148 -286.5t-252.5 -169t-362 -56q-192 0 -335.5 56t-244.5 171q-106 122 -151 279.5t-45 406.5q0 250 45 407.5t151 279.5q66 76 152 126.5t191.5 75.5t238.5 25q517 0 692 -336q56 -107 86.5 -254t30.5 -313zM1507 481q0 90 -9 177.5 t-21 143.5t-32.5 119t-43.5 111q-56 113 -178 170.5t-308 57.5q-185 0 -308.5 -57.5t-182.5 -168.5q-47 -93 -76 -232.5t-29 -312.5q0 -172 29 -311.5t76 -232.5q119 -226 496 -226q119 0 214.5 26t162 75.5t104.5 126.5q47 100 76.5 232.5t29.5 301.5zM1284 53 q0 -26 -35 -26h-86q-27 0 -42 5.5t-34 26.5l-245 308h-66v-291q0 -28 -11 -38.5t-36 -10.5h-59q-31 0 -43.5 9.5t-12.5 39.5v815q0 29 14 37t42 8h262q76 0 115 -4t64 -16.5t54 -41.5q70 -73 70 -253q0 -236 -201 -250l234 -279q16 -22 16 -39zM1077 633q0 73 -12 109.5 t-35 48.5q-22 12 -131 12q-49 0 -73 -0.5t-50 -1.5v-299h174q82 0 107 30q20 34 20 101z" unicode="®" horiz-adv-x="1825"/>
<glyph glyph-name="uni00AF" d="M678 1769q0 -50 -8.5 -62t-48.5 -12h-568q-34 0 -43.5 10.5t-9.5 44.5v60q0 47 53 47h568q35 0 46 -9.5t11 -37.5v-41z" unicode="¯" horiz-adv-x="678"/>
<glyph glyph-name="degree" d="M641 1178q0 -101 -67.5 -171.5t-163.5 -70.5q-95 0 -163.5 71t-68.5 171q0 65 31 121t84 88t117 32q96 0 163.5 -70.5t67.5 -170.5zM559 1178q0 65 -43 109t-106 44t-105.5 -45.5t-42.5 -107.5q0 -43 20 -78t53.5 -55.5t74.5 -20.5q42 0 75.5 20.5t53.5 55.5t20 78z" unicode="°" horiz-adv-x="819"/>
<glyph glyph-name="plusminus" d="M975 590h-357v-371h-110v371h-358v117h356v370h110v-370h359v-117zM975 -23h-825v117h825v-117z" unicode="±" horiz-adv-x="1124"/>
<glyph glyph-name="acute" d="M399 1489q0 -14 -14 -31q-40 -55 -96 -135q-105 -147 -123 -158q-19 -10 -43 -10v0h-6h-60q-28 0 -39 1t-14.5 3.5t-3.5 9.5q0 10 16 37q164 275 191 297q8 8 67 8q65 0 87.5 -1t30 -6t7.5 -15z" unicode="´" horiz-adv-x="399"/>
<glyph glyph-name="paragraph" d="M1253 -328q0 -37 -3 -50t-14 -18t-38 -5h-244v1900h-163v-1900h-246q-34 0 -43.5 10.5t-9.5 44.5v47q0 47 53 47h104v889h-33h-4q-97 0 -163 11.5t-138 51.5q-58 34 -98.5 98t-63 145t-22.5 157q0 121 32 238.5t95 179.5q45 45 90 65.5t122.5 28.5t225.5 8h506 q34 0 44.5 -9.5t10.5 -37.5v-29q0 -37 -3 -50.5t-13.5 -18.5t-38.5 -5h-102v-1722h102q34 0 44.5 -9.5t10.5 -37.5v-29z" unicode="¶" horiz-adv-x="1421"/>
<glyph glyph-name="uni00B7" d="M391 692q0 -16 -10 -26l-111 -111q-10 -10 -24 -10q-17 0 -27 10l-110 111q-11 9 -11 24q0 18 11 27l110 110q9 11 25 11q17 0 26 -11l111 -110q10 -10 10 -25z" unicode="·" horiz-adv-x="489"/>
<glyph glyph-name="cedilla" d="M332 -10q0 -7 -15 -27l-124 -166q-20 -26 -32.5 -33.5t-39.5 -7.5h-84q-37 0 -37 17q0 9 25 39l155 170q17 18 74 18h51q27 0 27 -10z" unicode="¸" horiz-adv-x="332"/>
<glyph glyph-name="ordmasculine" d="M678 1085q0 -152 -70 -227q-73 -76 -221 -76q-146 0 -219 76q-39 44 -54.5 95t-15.5 132q0 82 16 133.5t54 94.5q70 76 219 76q151 0 221 -76q38 -41 54 -93.5t16 -134.5zM535 1085q0 99 -27 148q-15 26 -38 35.5t-83 9.5q-58 0 -80 -9t-39 -36q-26 -47 -26 -148 q0 -104 26 -149q16 -25 40 -34t79 -9q58 0 82.5 9t38.5 34q27 47 27 149z" unicode="º" horiz-adv-x="776"/>
<glyph glyph-name="guillemotright" d="M852 477q0 -15 -63.5 -120t-133.5 -216q-12 -19 -24 -24.5t-47 -5.5q-101 0 -101 20q0 9 6 19l181 327l-181 328q-6 9 -6 18q0 21 101 21q35 0 47.5 -5.5t23.5 -25.5q27 -42 53.5 -84t66.5 -107.5t58.5 -99.5t18.5 -45zM496 477q0 -15 -63.5 -120t-133.5 -216 q-12 -19 -24 -24.5t-48 -5.5q-100 0 -100 20q0 3 1.5 7l4.5 12l182 327l-182 328q-2 6 -4 10.5t-2 7.5q0 21 100 21q36 0 48.5 -5.5t23.5 -25.5q27 -42 53.5 -84t66.5 -107.5t58.5 -99.5t18.5 -45z" unicode="»" horiz-adv-x="940"/>
<glyph glyph-name="onequarter" d="M414 735q0 -23 -11.5 -37t-35.5 -14h-37q-29 0 -44.5 9.5t-15.5 41.5v516q-5 -2 -14.5 -6.5t-21 -9t-21.5 -7.5t-14 -3q-14 0 -22 7.5t-11.5 19t-4.5 24t-1 22.5q0 19 9.5 28t25.5 15q21 9 41.5 18.5t41.5 17.5t43 13t46 5q21 0 34 -13t13 -34v-613zM1122 1391 q0 -3 -19.5 -43t-52.5 -106t-78 -153.5t-96 -186.5t-105.5 -205t-107 -207.5t-100.5 -195t-86.5 -168t-64.5 -125t-35 -67.5q-6 -16 -25 -16q-7 0 -16.5 4.5t-19.5 10t-19 11.5t-14 9q-17 9 -17 27q0 3 19.5 42.5t52.5 105.5t78 154t96 187t105.5 204.5t107 207t101 195 t87 168t64.5 125t35 67.5q10 16 26 16q5 0 15 -4.5t20.5 -10.5t19.5 -12t13 -8q16 -10 16 -26zM1100 516l-174 -231q43 2 86.5 3t87.5 3v225zM1233 51q0 -20 -5.5 -30.5t-15.5 -15t-23.5 -5t-29.5 -0.5q-29 0 -44 9.5t-15 41.5v127h-256q-15 0 -26 9t-17.5 22t-9.5 28t-3 27 q0 25 15 43l287 381q6 9 16 17t22 8h58q21 0 34 -14t13 -35v-367h8q17 0 29.5 -1.5t20.5 -6.5t12 -16t4 -29q0 -24 -3.5 -37.5t-11.5 -19.5t-22.5 -7.5t-36.5 -1.5v-127z" unicode="¼" horiz-adv-x="1448"/>
<glyph glyph-name="onehalf" d="M414 735q0 -23 -11.5 -37t-35.5 -14h-37q-29 0 -44.5 9.5t-15.5 41.5v516q-5 -2 -14.5 -6.5t-21 -9t-21.5 -7.5t-14 -3q-14 0 -22 7.5t-11.5 19t-4.5 24t-1 22.5q0 19 9.5 28t25.5 15q21 9 41.5 18.5t41.5 17.5t43 13t46 5q21 0 34 -13t13 -34v-613zM1122 1391 q0 -3 -19.5 -43t-52.5 -106t-78 -153.5t-96 -186.5t-105.5 -205t-107 -207.5t-100.5 -195t-86.5 -168t-64.5 -125t-35 -67.5q-6 -16 -25 -16q-7 0 -16.5 4.5t-19.5 10t-19 11.5t-14 9q-17 9 -17 27q0 3 19.5 42.5t52.5 105.5t78 154t96 187t105.5 204.5t107 207t101 195 t87 168t64.5 125t35 67.5q10 16 26 16q5 0 15 -4.5t20.5 -10.5t19.5 -12t13 -8q16 -10 16 -26zM1331 47q0 -47 -49 -47h-377q-21 0 -30.5 7t-13.5 18.5t-3.5 26.5t0.5 30q0 22 24 53.5t60 68.5t78 78t78 83t60 83t24 78q0 39 -15.5 55.5t-60.5 16.5q-28 0 -55.5 -1.5 t-55.5 -6.5q-12 -2 -26.5 -5t-26.5 -3q-15 0 -24 9t-13.5 22.5t-6 28t-1.5 26.5q0 23 14.5 31.5t32.5 11.5q40 6 80 10t80 4q46 0 86.5 -9t71 -30t48 -55.5t17.5 -85.5q0 -69 -27.5 -128.5t-70 -111t-93.5 -97t-98 -87.5q62 3 122 5.5t122 2.5q21 0 31 -7t14 -18.5t4 -26.5 v-30z" unicode="½" horiz-adv-x="1448"/>
<glyph glyph-name="threequarters" d="M1178 1391q0 -3 -19.5 -43t-53 -106t-78 -153.5t-95.5 -186.5t-105.5 -205t-107 -207.5t-101 -195t-87 -168t-64.5 -125t-35 -67.5q-6 -16 -24 -16q-7 0 -17 4.5t-20 10t-19 11.5t-14 9q-16 10 -16 27q0 3 19.5 42.5t52.5 105.5t78 154t96 187t105.5 204.5t107 207 t100.5 195t86.5 168t64.5 125t35 67.5q10 16 27 16q4 0 14 -4.5t20.5 -10.5t19.5 -12t13 -8q17 -10 17 -26zM1135 516l-174 -231q43 2 86.5 3t87.5 3v225zM1268 51q0 -20 -5.5 -30.5t-15.5 -15t-23.5 -5t-29.5 -0.5q-29 0 -44 9.5t-15 41.5v127h-256q-15 0 -26 9t-17.5 22 t-9.5 28t-3 27q0 27 15 43l286 381q7 9 17 17t22 8h58q21 0 34 -14t13 -35v-367h8q17 0 29 -1.5t20 -6.5t12 -16t4 -29q0 -24 -3 -37.5t-11.5 -19.5t-22.5 -7.5t-36 -1.5v-127zM578 885q0 -120 -61.5 -175t-178.5 -55q-11 0 -32.5 1.5t-47.5 5.5t-53.5 9.5t-50.5 14t-38 19 t-16 24.5v8q0 2 1 3t1 3q4 9 7 23t8 26.5t13 21.5t22 9q5 0 9 -1t9 -3q42 -15 84.5 -26t87.5 -11q28 0 45.5 6t27.5 18.5t13.5 31.5t3.5 45q0 50 -23 66.5t-69 19.5q-32 2 -64.5 2h-64.5q-19 0 -27.5 8t-11 20t-1.5 27t1 29q0 19 12 27t29.5 10.5t36 1t31.5 -1.5 q34 0 58.5 2.5t39.5 13t22 31t7 57.5q0 40 -23.5 56t-71.5 16q-23 0 -45 -2.5t-45 -5.5q-11 -2 -22.5 -5.5t-22.5 -3.5q-15 0 -23 11t-12 26t-5 31t-1 27t4.5 17.5t12.5 12.5q6 5 28 8.5t47.5 6t48.5 3.5t31 1q51 0 94.5 -8t76 -29.5t51 -58.5t18.5 -95q0 -45 -11.5 -81.5 t-45.5 -67.5q52 -28 69 -71.5t17 -98.5z" unicode="¾" horiz-adv-x="1448"/>
<glyph glyph-name="questiondown" d="M680 1262q0 -17 -10 -27l-111 -111q-10 -10 -24 -10q-15 0 -25 10l-111 111q-10 10 -10 25q0 16 10 26l111 111q10 10 25 10q14 0 24 -10l111 -111q10 -10 10 -24zM815 6q0 -15 -7 -20.5t-30 -10.5q-156 -26 -305 -26q-118 0 -197.5 35.5t-118 108.5t-38.5 186 q0 98 40.5 185t90.5 146t156 172q42 45 51.5 73.5t9.5 117.5q0 24 2 32.5t9.5 11.5t29.5 3h88q28 0 34.5 -12t6.5 -60v-43q0 -77 -38.5 -136.5t-121.5 -153.5t-125.5 -168.5t-42.5 -161.5t41.5 -127.5t132.5 -40.5q88 0 196.5 20.5t104.5 20.5q22 0 25 -41l6 -101v-8v-2z " unicode="¿" horiz-adv-x="983"/>
<glyph glyph-name="Agrave" d="M1182 29q0 -29 -37 -29h-111q-28 0 -40.5 11.5t-22.5 39.5l-133 395q-24 -1 -75 -1.5t-86.5 -0.5h-78.5h-70.5t-78.5 0.5t-68 1.5l-123 -380q-12 -39 -25.5 -52.5t-46.5 -13.5h-94q-27 0 -35 2.5t-8 13.5q0 14 14 54l418 1235q17 44 31.5 57.5t54.5 13.5h84 q42 0 56.5 -13.5t29.5 -57.5l441 -1256q4 -16 4 -20zM784 606l-178 531l-172 -529h164q129 0 186 -2zM739 1534q0 -9 -9 -11.5t-48 -2.5h-59h-7v0q-24 0 -43 10q-12 9 -15.5 13t-19 24t-49.5 68t-38 53q-45 63 -68.5 95.5t-28.5 39.5q-14 17 -14 31q0 10 7.5 15t29.5 6t86 1 q58 0 70 -8q26 -22 190 -297q16 -27 16 -37z" unicode="À" horiz-adv-x="1231"/>
<glyph glyph-name="Aacute" d="M1182 29q0 -29 -37 -29h-111q-28 0 -40.5 11.5t-22.5 39.5l-133 395q-24 -1 -75 -1.5t-86.5 -0.5h-78.5h-70.5t-78.5 0.5t-68 1.5l-123 -380q-12 -39 -25.5 -52.5t-46.5 -13.5h-94q-27 0 -35 2.5t-8 13.5q0 14 14 54l418 1235q17 44 31.5 57.5t54.5 13.5h84 q42 0 56.5 -13.5t29.5 -57.5l441 -1256q4 -16 4 -20zM784 606l-178 531l-172 -529h164q129 0 186 -2zM891 1852q0 -14 -14 -31q-40 -55 -96 -135q-105 -147 -123 -158q-19 -10 -43 -10v0h-6h-60q-28 0 -39 1t-14.5 3.5t-3.5 9.5q0 10 16 37q164 275 191 297q8 8 67 8 q65 0 87.5 -1t30 -6t7.5 -15z" unicode="Á" horiz-adv-x="1231"/>
<glyph glyph-name="Acircumflex" d="M1182 29q0 -29 -37 -29h-111q-28 0 -40.5 11.5t-22.5 39.5l-133 395q-24 -1 -75 -1.5t-86.5 -0.5h-78.5h-70.5t-78.5 0.5t-68 1.5l-123 -380q-12 -39 -25.5 -52.5t-46.5 -13.5h-94q-27 0 -35 2.5t-8 13.5q0 14 14 54l418 1235q17 44 31.5 57.5t54.5 13.5h84 q42 0 56.5 -13.5t29.5 -57.5l441 -1256q4 -16 4 -20zM784 606l-178 531l-172 -529h164q129 0 186 -2zM904 1524q0 -14 -107 -14q-29 0 -37 4q-10 5 -57 76q-18 27 -88 118q-60 -78 -88 -118q-45 -68 -60 -76q-8 -4 -37 -4q-104 0 -104 14q0 5 8 19l84 118q94 131 113 144 q12 10 84 10q71 0 84 -10q10 -7 48 -56.5t64 -87.5l84 -118q9 -16 9 -19z" unicode="Â" horiz-adv-x="1231"/>
<glyph glyph-name="Atilde" d="M1182 29q0 -29 -37 -29h-111q-28 0 -40.5 11.5t-22.5 39.5l-133 395q-24 -1 -75 -1.5t-86.5 -0.5h-78.5h-70.5t-78.5 0.5t-68 1.5l-123 -380q-12 -39 -25.5 -52.5t-46.5 -13.5h-94q-27 0 -35 2.5t-8 13.5q0 14 14 54l418 1235q17 44 31.5 57.5t54.5 13.5h84 q42 0 56.5 -13.5t29.5 -57.5l441 -1256q4 -16 4 -20zM784 606l-178 531l-172 -529h164q129 0 186 -2zM942 1712q0 -12 -16 -49q-64 -135 -174 -135q-39 0 -72 8.5t-73 25t-60.5 23.5t-44.5 7q-26 0 -42.5 -10.5t-39.5 -39.5q-9 -13 -16 -17.5t-19 -4.5h-67q-16 0 -20.5 3 t-4.5 11q0 17 25 60q69 133 172 133q31 0 64 -8t74 -21.5t70.5 -23t47.5 -9.5q36 0 67 49q5 9 10 12t21 3h72q26 0 26 -17z" unicode="Ã" horiz-adv-x="1231"/>
<glyph glyph-name="Adieresis" d="M1182 29q0 -29 -37 -29h-111q-28 0 -40.5 11.5t-22.5 39.5l-133 395q-24 -1 -75 -1.5t-86.5 -0.5h-78.5h-70.5t-78.5 0.5t-68 1.5l-123 -380q-12 -39 -25.5 -52.5t-46.5 -13.5h-94q-27 0 -35 2.5t-8 13.5q0 14 14 54l418 1235q17 44 31.5 57.5t54.5 13.5h84 q42 0 56.5 -13.5t29.5 -57.5l441 -1256q4 -16 4 -20zM784 606l-178 531l-172 -529h164q129 0 186 -2zM863 1549q0 -13 -10 -22t-21 -9h-131q-10 0 -19.5 9.5t-9.5 21.5v137q0 13 9 22t20 9h131q12 0 21.5 -8.5t9.5 -22.5v-137zM543 1549q0 -12 -8.5 -21.5t-19.5 -9.5h-133 q-12 0 -20.5 9.5t-8.5 21.5v137q0 13 8 22t21 9h133q12 0 20 -9t8 -22v-137z" unicode="Ä" horiz-adv-x="1231"/>
<glyph glyph-name="Aring" d="M1182 29q0 -29 -37 -29h-111q-28 0 -40.5 11.5t-22.5 39.5l-133 395q-24 -1 -75 -1.5t-86.5 -0.5h-78.5h-70.5t-78.5 0.5t-68 1.5l-123 -380q-12 -39 -25.5 -52.5t-46.5 -13.5h-94q-27 0 -35 2.5t-8 13.5q0 14 14 54l418 1235q17 44 31.5 57.5t54.5 13.5h84 q42 0 56.5 -13.5t29.5 -57.5l441 -1256q4 -16 4 -20zM784 606l-178 531l-172 -529h164q129 0 186 -2zM764 1679q0 -65 -43.5 -111t-107.5 -46q-62 0 -107 47.5t-45 109.5q0 66 44.5 112t107.5 46q40 0 75.5 -21t55.5 -57.5t20 -79.5zM690 1679q0 34 -22 58t-55 24 t-55.5 -24.5t-22.5 -57.5t23 -56t55 -23q31 0 54 24t23 55z" unicode="Å" horiz-adv-x="1231"/>
<glyph glyph-name="AE" d="M1645 53q0 -33 -12 -43t-40 -10h-628q-39 0 -50.5 11t-11.5 48v582h-375l-266 -578q-18 -38 -31.5 -50.5t-35.5 -12.5h-93q-53 0 -53 35q0 11 21 55l491 1065q45 95 67 133t54.5 59t83.5 21h827q29 0 40.5 -10t11.5 -43v-58q0 -36 -9 -50.5t-41 -14.5h-2q-143 0 -257.5 2 t-233.5 6v-412q218 9 446 9h2q32 0 39.5 -14t7.5 -52v-29q0 -38 -8 -51.5t-39 -13.5h-2q-204 0 -446 8v-477q90 3 240 5.5t251 2.5h2q33 0 41.5 -14.5t8.5 -50.5v-58zM903 793v405h-69q-24 0 -34.5 -1.5t-16.5 -6t-14 -19t-17 -34.5l-156 -344h307z" unicode="Æ" horiz-adv-x="1772"/>
<glyph glyph-name="Ccedilla" d="M1001 31q0 -21 -15 -28.5t-58 -10.5q-90 -7 -195 -10q-1 -2 -4 -7t-8 -12l-125 -166q-20 -26 -32.5 -33.5t-39.5 -7.5h-82q-39 0 -39 17q0 10 27 39l156 170l4 4q-76 7 -125 20q-98 25 -161 84t-96.5 145.5t-47 192.5t-13.5 240q0 228 33.5 370t100.5 216.5t166.5 101 t252.5 26.5q85 0 228 -10q43 -3 58 -10t15 -29v-71q0 -41 -7.5 -54.5t-35.5 -13.5q-33 0 -53.5 2.5t-55.5 5t-110 2.5q-67 0 -132.5 -7.5t-102.5 -25.5q-62 -29 -94 -95t-43 -164t-11 -248q0 -105 7.5 -186.5t30.5 -147t66.5 -105.5t114.5 -55q51 -10 164 -10q79 0 130 5 t89 5q28 0 35.5 -13.5t7.5 -54.5v-71z" unicode="Ç" horiz-adv-x="1118"/>
<glyph glyph-name="Egrave" d="M920 53q0 -33 -12 -43t-40 -10h-628q-40 0 -52 11t-12 48v1256q0 35 14 44t50 9h628q29 0 40.5 -10t11.5 -43v-58q0 -38 -8.5 -51.5t-41.5 -13.5h-2q-237 0 -491 8v-412q218 9 446 9h2q33 0 41 -14t8 -52v-29q0 -38 -8.5 -51.5t-40.5 -13.5h-2q-204 0 -446 8v-477 q254 8 491 8h2q34 0 42 -13.5t8 -51.5v-58zM690 1534q0 -9 -9 -11.5t-48 -2.5h-59h-7v0q-24 0 -43 10q-12 9 -15.5 13t-19 24t-49.5 68t-38 53q-45 63 -68.5 95.5t-28.5 39.5q-14 17 -14 31q0 10 7.5 15t29.5 6t86 1q58 0 70 -8q26 -22 190 -297q16 -27 16 -37z" unicode="È" horiz-adv-x="1049"/>
<glyph glyph-name="Eacute" d="M920 53q0 -33 -12 -43t-40 -10h-628q-40 0 -52 11t-12 48v1256q0 35 14 44t50 9h628q29 0 40.5 -10t11.5 -43v-58q0 -38 -8.5 -51.5t-41.5 -13.5h-2q-237 0 -491 8v-412q218 9 446 9h2q33 0 41 -14t8 -52v-29q0 -38 -8.5 -51.5t-40.5 -13.5h-2q-204 0 -446 8v-477 q254 8 491 8h2q34 0 42 -13.5t8 -51.5v-58zM826 1852q0 -14 -14 -31q-40 -55 -96 -135q-105 -147 -123 -158q-19 -10 -43 -10v0h-6h-60q-28 0 -39 1t-14.5 3.5t-3.5 9.5q0 10 16 37q164 275 191 297q8 8 67 8q65 0 87.5 -1t30 -6t7.5 -15z" unicode="É" horiz-adv-x="1049"/>
<glyph glyph-name="Ecircumflex" d="M920 53q0 -33 -12 -43t-40 -10h-628q-40 0 -52 11t-12 48v1256q0 35 14 44t50 9h628q29 0 40.5 -10t11.5 -43v-58q0 -38 -8.5 -51.5t-41.5 -13.5h-2q-237 0 -491 8v-412q218 9 446 9h2q33 0 41 -14t8 -52v-29q0 -38 -8.5 -51.5t-40.5 -13.5h-2q-204 0 -446 8v-477 q254 8 491 8h2q34 0 42 -13.5t8 -51.5v-58zM839 1524q0 -14 -107 -14q-29 0 -37 4q-10 5 -57 76q-18 27 -88 118q-60 -78 -88 -118q-45 -68 -60 -76q-8 -4 -37 -4q-104 0 -104 14q0 5 8 19l84 118q94 131 113 144q12 10 84 10q71 0 84 -10q10 -7 48 -56.5t64 -87.5l84 -118 q9 -16 9 -19z" unicode="Ê" horiz-adv-x="1049"/>
<glyph glyph-name="Edieresis" d="M920 53q0 -33 -12 -43t-40 -10h-628q-40 0 -52 11t-12 48v1256q0 35 14 44t50 9h628q29 0 40.5 -10t11.5 -43v-58q0 -38 -8.5 -51.5t-41.5 -13.5h-2q-237 0 -491 8v-412q218 9 446 9h2q33 0 41 -14t8 -52v-29q0 -38 -8.5 -51.5t-40.5 -13.5h-2q-204 0 -446 8v-477 q254 8 491 8h2q34 0 42 -13.5t8 -51.5v-58zM796 1549q0 -13 -10 -22t-21 -9h-131q-10 0 -19.5 9.5t-9.5 21.5v137q0 13 9 22t20 9h131q12 0 21.5 -8.5t9.5 -22.5v-137zM476 1549q0 -12 -8.5 -21.5t-19.5 -9.5h-133q-12 0 -20.5 9.5t-8.5 21.5v137q0 13 8 22t21 9h133 q12 0 20 -9t8 -22v-137z" unicode="Ë" horiz-adv-x="1049"/>
<glyph glyph-name="Igrave" d="M387 59q0 -35 -11.5 -47t-39.5 -12h-86q-39 0 -51.5 11t-12.5 48v1256q0 35 14 44t50 9h86q32 0 41.5 -11.5t9.5 -41.5v-1256zM487 1534q0 -9 -9 -11.5t-48 -2.5h-59h-7v0q-24 0 -43 10q-12 9 -15.5 13t-19 24t-49.5 68t-38 53q-45 63 -68.5 95.5t-28.5 39.5 q-14 17 -14 31q0 10 7.5 15t29.5 6t86 1q58 0 70 -8q26 -22 190 -297q16 -27 16 -37z" unicode="Ì" horiz-adv-x="573"/>
<glyph glyph-name="Iacute" d="M387 59q0 -35 -11.5 -47t-39.5 -12h-86q-39 0 -51.5 11t-12.5 48v1256q0 35 14 44t50 9h86q32 0 41.5 -11.5t9.5 -41.5v-1256zM549 1852q0 -14 -14 -31q-40 -55 -96 -135q-105 -147 -123 -158q-19 -10 -43 -10v0h-6h-60q-28 0 -39 1t-14.5 3.5t-3.5 9.5q0 10 16 37 q164 275 191 297q8 8 67 8q65 0 87.5 -1t30 -6t7.5 -15z" unicode="Í" horiz-adv-x="573"/>
<glyph glyph-name="Icircumflex" d="M387 59q0 -35 -11.5 -47t-39.5 -12h-86q-39 0 -51.5 11t-12.5 48v1256q0 35 14 44t50 9h86q32 0 41.5 -11.5t9.5 -41.5v-1256zM575 1524q0 -14 -107 -14q-29 0 -37 4q-10 5 -57 76q-18 27 -88 118q-60 -78 -88 -118q-45 -68 -60 -76q-8 -4 -37 -4q-104 0 -104 14 q0 5 8 19l84 118q94 131 113 144q12 10 84 10q71 0 84 -10q10 -7 48 -56.5t64 -87.5l84 -118q9 -16 9 -19z" unicode="Î" horiz-adv-x="573"/>
<glyph glyph-name="Idieresis" d="M387 59q0 -35 -11.5 -47t-39.5 -12h-86q-39 0 -51.5 11t-12.5 48v1256q0 35 14 44t50 9h86q32 0 41.5 -11.5t9.5 -41.5v-1256zM542 1549q0 -13 -10 -22t-21 -9h-131q-10 0 -19.5 9.5t-9.5 21.5v137q0 13 9 22t20 9h131q12 0 21.5 -8.5t9.5 -22.5v-137zM222 1549 q0 -12 -8.5 -21.5t-19.5 -9.5h-133q-12 0 -20.5 9.5t-8.5 21.5v137q0 13 8 22t21 9h133q12 0 20 -9t8 -22v-137z" unicode="Ï" horiz-adv-x="573"/>
<glyph glyph-name="Eth" d="M1217 668q0 -175 -24 -303.5t-93.5 -217.5t-198.5 -122q-100 -25 -237 -25h-353q-40 0 -51.5 11t-11.5 48v584h-76q-34 0 -43.5 10.5t-9.5 44.5v58q0 47 53 47h76v512q0 35 13.5 44t49.5 9h353q157 0 255 -25t165 -96.5t100 -211t33 -367.5zM1008 664q0 215 -26 332.5 t-122 160.5q-36 18 -102 25.5t-133 7.5q-48 0 -84.5 -1.5t-55.5 -3t-36 -3.5v-379h213q34 0 44.5 -9.5t10.5 -37.5v-39q0 -37 -3.5 -50.5t-14.5 -18.5t-37 -5h-213v-457q17 -1 36 -3t55.5 -3.5t84.5 -1.5h53q54 0 110 10q92 19 140 78t64 153.5t16 244.5z" unicode="Ð" horiz-adv-x="1354"/>
<glyph glyph-name="Ntilde" d="M1198 59q0 -35 -11.5 -47t-39.5 -12h-68h-14h-2q-22 0 -37 5.5t-31 25.5q-133 190 -637 975v-947q0 -35 -11.5 -47t-39.5 -12h-86q-40 0 -51.5 11t-11.5 48v1256q0 36 13 44.5t50 8.5h58q35 0 47.5 -4.5t25.5 -24.5q26 -38 107 -159t165.5 -250.5t187 -286.5t185.5 -283 v955q0 36 13 44.5t49 8.5h88q32 0 41.5 -11.5t9.5 -41.5v-1256zM1026 1705q0 -12 -16 -49q-64 -135 -174 -135q-39 0 -72 8.5t-73 25t-60.5 23.5t-44.5 7q-26 0 -42.5 -10.5t-39.5 -39.5q-9 -13 -16 -17.5t-19 -4.5h-67q-16 0 -20.5 3t-4.5 11q0 17 25 60q69 133 172 133 q31 0 64 -8t74 -21.5t70.5 -23t47.5 -9.5q36 0 67 49q5 9 10 12t21 3h72q26 0 26 -17z" unicode="Ñ" horiz-adv-x="1354"/>
<glyph glyph-name="Ograve" d="M1237 682q0 -80 -5.5 -155.5t-18.5 -138t-39 -126.5t-70 -123q-75 -98 -175.5 -140t-236.5 -42t-236.5 42t-174.5 140q-54 73 -84.5 162t-40 180t-9.5 201t10 201.5t39.5 181t84.5 162.5q75 102 175 141t236 39t236 -39.5t176 -140.5q44 -57 70 -122t39 -128.5t18.5 -139 t5.5 -155.5zM1026 682q0 275 -49 387q-70 160 -285 160q-214 0 -284 -160q-50 -114 -50 -387q0 -271 50 -385q37 -86 111 -123t173 -37q215 0 285 160q49 112 49 385zM852 1534q0 -9 -9 -11.5t-48 -2.5h-59h-7v0q-24 0 -43 10q-12 9 -15.5 13t-19 24t-49.5 68t-38 53 q-45 63 -68.5 95.5t-28.5 39.5q-14 17 -14 31q0 10 7.5 15t29.5 6t86 1q58 0 70 -8q26 -22 190 -297q16 -27 16 -37z" unicode="Ò" horiz-adv-x="1384"/>
<glyph glyph-name="Oacute" d="M1237 682q0 -80 -5.5 -155.5t-18.5 -138t-39 -126.5t-70 -123q-75 -98 -175.5 -140t-236.5 -42t-236.5 42t-174.5 140q-54 73 -84.5 162t-40 180t-9.5 201t10 201.5t39.5 181t84.5 162.5q75 102 175 141t236 39t236 -39.5t176 -140.5q44 -57 70 -122t39 -128.5t18.5 -139 t5.5 -155.5zM1026 682q0 275 -49 387q-70 160 -285 160q-214 0 -284 -160q-50 -114 -50 -387q0 -271 50 -385q37 -86 111 -123t173 -37q215 0 285 160q49 112 49 385zM977 1852q0 -14 -14 -31q-40 -55 -96 -135q-105 -147 -123 -158q-19 -10 -43 -10v0h-6h-60q-28 0 -39 1 t-14.5 3.5t-3.5 9.5q0 10 16 37q164 275 191 297q8 8 67 8q65 0 87.5 -1t30 -6t7.5 -15z" unicode="Ó" horiz-adv-x="1384"/>
<glyph glyph-name="Ocircumflex" d="M1237 682q0 -80 -5.5 -155.5t-18.5 -138t-39 -126.5t-70 -123q-75 -98 -175.5 -140t-236.5 -42t-236.5 42t-174.5 140q-54 73 -84.5 162t-40 180t-9.5 201t10 201.5t39.5 181t84.5 162.5q75 102 175 141t236 39t236 -39.5t176 -140.5q44 -57 70 -122t39 -128.5t18.5 -139 t5.5 -155.5zM1026 682q0 275 -49 387q-70 160 -285 160q-214 0 -284 -160q-50 -114 -50 -387q0 -271 50 -385q37 -86 111 -123t173 -37q215 0 285 160q49 112 49 385zM973 1524q0 -14 -107 -14q-29 0 -37 4q-10 5 -57 76q-18 27 -88 118q-60 -78 -88 -118q-45 -68 -60 -76 q-8 -4 -37 -4q-104 0 -104 14q0 5 8 19l84 118q94 131 113 144q12 10 84 10q71 0 84 -10q10 -7 48 -56.5t64 -87.5l84 -118q9 -16 9 -19z" unicode="Ô" horiz-adv-x="1384"/>
<glyph glyph-name="Otilde" d="M1237 682q0 -80 -5.5 -155.5t-18.5 -138t-39 -126.5t-70 -123q-75 -98 -175.5 -140t-236.5 -42t-236.5 42t-174.5 140q-54 73 -84.5 162t-40 180t-9.5 201t10 201.5t39.5 181t84.5 162.5q75 102 175 141t236 39t236 -39.5t176 -140.5q44 -57 70 -122t39 -128.5t18.5 -139 t5.5 -155.5zM1026 682q0 275 -49 387q-70 160 -285 160q-214 0 -284 -160q-50 -114 -50 -387q0 -271 50 -385q37 -86 111 -123t173 -37q215 0 285 160q49 112 49 385zM1019 1705q0 -12 -16 -49q-64 -135 -174 -135q-39 0 -72 8.5t-73 25t-60.5 23.5t-44.5 7 q-26 0 -42.5 -10.5t-39.5 -39.5q-9 -13 -16 -17.5t-19 -4.5h-67q-16 0 -20.5 3t-4.5 11q0 17 25 60q69 133 172 133q31 0 64 -8t74 -21.5t70.5 -23t47.5 -9.5q36 0 67 49q5 9 10 12t21 3h72q26 0 26 -17z" unicode="Õ" horiz-adv-x="1384"/>
<glyph glyph-name="Odieresis" d="M1237 682q0 -80 -5.5 -155.5t-18.5 -138t-39 -126.5t-70 -123q-75 -98 -175.5 -140t-236.5 -42t-236.5 42t-174.5 140q-54 73 -84.5 162t-40 180t-9.5 201t10 201.5t39.5 181t84.5 162.5q75 102 175 141t236 39t236 -39.5t176 -140.5q44 -57 70 -122t39 -128.5t18.5 -139 t5.5 -155.5zM1026 682q0 275 -49 387q-70 160 -285 160q-214 0 -284 -160q-50 -114 -50 -387q0 -271 50 -385q37 -86 111 -123t173 -37q215 0 285 160q49 112 49 385zM949 1549q0 -13 -10 -22t-21 -9h-131q-10 0 -19.5 9.5t-9.5 21.5v137q0 13 9 22t20 9h131q12 0 21.5 -8.5 t9.5 -22.5v-137zM629 1549q0 -12 -8.5 -21.5t-19.5 -9.5h-133q-12 0 -20.5 9.5t-8.5 21.5v137q0 13 8 22t21 9h133q12 0 20 -9t8 -22v-137z" unicode="Ö" horiz-adv-x="1384"/>
<glyph glyph-name="multiply" d="M842 215l-107 -106l-280 276l-279 -276l-106 106l278 274l-278 277l106 106l279 -276l280 276l107 -106l-279 -277z" unicode="×" horiz-adv-x="911"/>
<glyph glyph-name="Oslash" d="M1241 1303q0 -12 -6 -21l-105 -131q35 -66 55 -144t26 -152.5t6 -172.5q0 -110 -9.5 -201t-40 -180t-84.5 -162q-48 -66 -110 -106t-136 -58t-165 -18q-241 0 -373 137l-84 -108q-11 -11 -18 -11q-8 0 -23 11l-59 53q-6 3 -6 14q0 13 6 19l104 133q-30 55 -47 109.5 t-27 115t-14 125.5t-4 127q0 80 5 150t19.5 140t40.5 133t70 122q76 102 175.5 141t234.5 39q82 0 147 -12t125 -43.5t109 -85.5l82 104q10 12 20 12q6 0 19 -12l47 -39q20 -15 20 -28zM932 1114q-79 115 -260 115q-215 0 -285 -160q-49 -112 -49 -387q0 -177 22 -297z M1008 682q0 168 -21 285l-569 -723q79 -107 254 -107q216 0 286 160q29 64 39.5 171.5t10.5 213.5z" unicode="Ø" horiz-adv-x="1350"/>
<glyph glyph-name="Ugrave" d="M1182 860q0 -224 -4.5 -326.5t-20.5 -195.5q-24 -167 -115 -262q-35 -38 -86.5 -61.5t-124.5 -34.5t-167 -11q-92 0 -165.5 11t-125 34.5t-86.5 61.5q-91 95 -115 262q-15 93 -20 195.5t-5 326.5v455q0 35 14 44t50 9h86q32 0 41.5 -11.5t9.5 -41.5v-635q0 -125 4.5 -199 t13.5 -117t29 -88q21 -48 54.5 -74.5t86.5 -39t128 -12.5q115 0 178 29.5t92 96.5q27 59 37 139t10 265v635q0 36 14.5 44.5t51.5 8.5h86q32 0 40.5 -11.5t8.5 -41.5v-455zM809 1534q0 -9 -9 -11.5t-48 -2.5h-59h-7v0q-24 0 -43 10q-12 9 -15.5 13t-19 24t-49.5 68t-38 53 q-45 63 -68.5 95.5t-28.5 39.5q-14 17 -14 31q0 10 7.5 15t29.5 6t86 1q58 0 70 -8q26 -22 190 -297q16 -27 16 -37z" unicode="Ù" horiz-adv-x="1329"/>
<glyph glyph-name="Uacute" d="M1182 860q0 -224 -4.5 -326.5t-20.5 -195.5q-24 -167 -115 -262q-35 -38 -86.5 -61.5t-124.5 -34.5t-167 -11q-92 0 -165.5 11t-125 34.5t-86.5 61.5q-91 95 -115 262q-15 93 -20 195.5t-5 326.5v455q0 35 14 44t50 9h86q32 0 41.5 -11.5t9.5 -41.5v-635q0 -125 4.5 -199 t13.5 -117t29 -88q21 -48 54.5 -74.5t86.5 -39t128 -12.5q115 0 178 29.5t92 96.5q27 59 37 139t10 265v635q0 36 14.5 44.5t51.5 8.5h86q32 0 40.5 -11.5t8.5 -41.5v-455zM963 1852q0 -14 -14 -31q-40 -55 -96 -135q-105 -147 -123 -158q-19 -10 -43 -10v0h-6h-60 q-28 0 -39 1t-14.5 3.5t-3.5 9.5q0 10 16 37q164 275 191 297q8 8 67 8q65 0 87.5 -1t30 -6t7.5 -15z" unicode="Ú" horiz-adv-x="1329"/>
<glyph glyph-name="Ucircumflex" d="M1182 860q0 -224 -4.5 -326.5t-20.5 -195.5q-24 -167 -115 -262q-35 -38 -86.5 -61.5t-124.5 -34.5t-167 -11q-92 0 -165.5 11t-125 34.5t-86.5 61.5q-91 95 -115 262q-15 93 -20 195.5t-5 326.5v455q0 35 14 44t50 9h86q32 0 41.5 -11.5t9.5 -41.5v-635q0 -125 4.5 -199 t13.5 -117t29 -88q21 -48 54.5 -74.5t86.5 -39t128 -12.5q115 0 178 29.5t92 96.5q27 59 37 139t10 265v635q0 36 14.5 44.5t51.5 8.5h86q32 0 40.5 -11.5t8.5 -41.5v-455zM961 1524q0 -14 -107 -14q-29 0 -37 4q-10 5 -57 76q-18 27 -88 118q-60 -78 -88 -118 q-45 -68 -60 -76q-8 -4 -37 -4q-104 0 -104 14q0 5 8 19l84 118q94 131 113 144q12 10 84 10q71 0 84 -10q10 -7 48 -56.5t64 -87.5l84 -118q9 -16 9 -19z" unicode="Û" horiz-adv-x="1329"/>
<glyph glyph-name="Udieresis" d="M1182 860q0 -224 -4.5 -326.5t-20.5 -195.5q-24 -167 -115 -262q-35 -38 -86.5 -61.5t-124.5 -34.5t-167 -11q-92 0 -165.5 11t-125 34.5t-86.5 61.5q-91 95 -115 262q-15 93 -20 195.5t-5 326.5v455q0 35 14 44t50 9h86q32 0 41.5 -11.5t9.5 -41.5v-635q0 -125 4.5 -199 t13.5 -117t29 -88q21 -48 54.5 -74.5t86.5 -39t128 -12.5q115 0 178 29.5t92 96.5q27 59 37 139t10 265v635q0 36 14.5 44.5t51.5 8.5h86q32 0 40.5 -11.5t8.5 -41.5v-455zM930 1549q0 -13 -10 -22t-21 -9h-131q-10 0 -19.5 9.5t-9.5 21.5v137q0 13 9 22t20 9h131 q12 0 21.5 -8.5t9.5 -22.5v-137zM610 1549q0 -12 -8.5 -21.5t-19.5 -9.5h-133q-12 0 -20.5 9.5t-8.5 21.5v137q0 13 8 22t21 9h133q12 0 20 -9t8 -22v-137z" unicode="Ü" horiz-adv-x="1329"/>
<glyph glyph-name="Yacute" d="M1114 1329q0 -13 -12 -39l-406 -758v-473q0 -35 -11.5 -47t-39.5 -12h-86q-40 0 -51.5 11t-11.5 48v455l-414 776q-12 23 -12 45q0 33 43 33h108q32 0 45 -9.5t25 -33.5l305 -588l315 588q14 25 26 34t44 9h88q45 0 45 -33v-6zM803 1852q0 -14 -14 -31q-40 -55 -96 -135 q-105 -147 -123 -158q-19 -10 -43 -10v0h-6h-60q-28 0 -39 1t-14.5 3.5t-3.5 9.5q0 10 16 37q164 275 191 297q8 8 67 8q65 0 87.5 -1t30 -6t7.5 -15z" unicode="Ý" horiz-adv-x="1184"/>
<glyph glyph-name="Thorn" d="M1034 692q0 -109 -16.5 -185t-51 -127.5t-87.5 -78.5q-51 -25 -110.5 -34t-164.5 -9h-227v-199q0 -35 -11 -47t-40 -12h-86q-40 0 -52 11t-12 48v1256q0 35 14 44t50 9h86q29 0 40 -12t11 -47v-148h237q102 0 161.5 -6.5t92 -24.5t70.5 -59q96 -107 96 -379zM836 709 q0 115 -18 176t-56 82q-39 20 -148 20h-8h-22q-73 0 -207 -4v-551h266q120 0 162 55q19 30 25 75.5t6 146.5z" unicode="Þ" horiz-adv-x="1122"/>
<glyph glyph-name="germandbls" d="M958 492q0 -149 -36.5 -264.5t-123.5 -183t-231 -67.5h-8h-2q-115 0 -117 31l-6 82v16q0 25 7 34.5t24 9.5q16 0 62 -5.5t59 -5.5q65 0 104.5 39.5t57.5 125.5t18 222q0 117 -28.5 169t-83.5 64.5t-179 12.5q-27 0 -34 13t-7 59q0 49 9.5 61.5t48.5 12.5q94 0 140 8 t71.5 38.5t25.5 96.5q0 70 -15 106t-54 49t-123 13q-56 0 -111 -8q-52 -7 -71 -33t-19 -96v-1033q0 -35 -9 -47t-36 -12h-72q-48 0 -60 9.5t-12 49.5v979q0 109 17 172.5t69 108.5q42 35 116 49t218 14q130 0 201 -19.5t108 -83.5t37 -189q0 -121 -30 -174t-109 -72 q80 -14 120.5 -64.5t52 -121.5t11.5 -166z" unicode="ß" horiz-adv-x="1065"/>
<glyph glyph-name="agrave" d="M893 59q0 -35 -9 -47t-36 -12h-74q-47 0 -58 9.5t-11 49.5v43q-174 -129 -332 -129q-128 0 -191 70.5t-63 212.5q0 225 149 283q61 23 172 35.5t265 13.5q0 58 -5 107.5t-16 76.5q-9 26 -40 41.5t-75 15.5q-114 0 -313 -53q-16 -4 -25 -4q-26 0 -26 39v76q0 27 6 38.5 t22 14.5q79 16 174 28.5t154 12.5q81 0 152 -18t110 -68q39 -47 54.5 -109t15.5 -213v-514zM705 250v186q-100 4 -138 4q-115 0 -171 -11.5t-76.5 -45t-20.5 -104.5q0 -85 23.5 -122.5t78.5 -37.5q58 0 150 39t154 92zM672 1169q0 -9 -9 -11.5t-48 -2.5h-59h-7v0 q-24 0 -43 10q-12 9 -15.5 13t-19 24t-49.5 68t-38 53q-45 63 -68.5 95.5t-28.5 39.5q-14 17 -14 31q0 10 7.5 15t29.5 6t86 1q58 0 70 -8q26 -22 190 -297q16 -27 16 -37z" unicode="à" horiz-adv-x="1030"/>
<glyph glyph-name="aacute" d="M893 59q0 -35 -9 -47t-36 -12h-74q-47 0 -58 9.5t-11 49.5v43q-174 -129 -332 -129q-128 0 -191 70.5t-63 212.5q0 225 149 283q61 23 172 35.5t265 13.5q0 58 -5 107.5t-16 76.5q-9 26 -40 41.5t-75 15.5q-114 0 -313 -53q-16 -4 -25 -4q-26 0 -26 39v76q0 27 6 38.5 t22 14.5q79 16 174 28.5t154 12.5q81 0 152 -18t110 -68q39 -47 54.5 -109t15.5 -213v-514zM705 250v186q-100 4 -138 4q-115 0 -171 -11.5t-76.5 -45t-20.5 -104.5q0 -85 23.5 -122.5t78.5 -37.5q58 0 150 39t154 92zM813 1489q0 -14 -14 -31q-40 -55 -96 -135 q-105 -147 -123 -158q-19 -10 -43 -10v0h-6h-60q-28 0 -39 1t-14.5 3.5t-3.5 9.5q0 10 16 37q164 275 191 297q8 8 67 8q65 0 87.5 -1t30 -6t7.5 -15z" unicode="á" horiz-adv-x="1030"/>
<glyph glyph-name="acircumflex" d="M893 59q0 -35 -9 -47t-36 -12h-74q-47 0 -58 9.5t-11 49.5v43q-174 -129 -332 -129q-128 0 -191 70.5t-63 212.5q0 225 149 283q61 23 172 35.5t265 13.5q0 58 -5 107.5t-16 76.5q-9 26 -40 41.5t-75 15.5q-114 0 -313 -53q-16 -4 -25 -4q-26 0 -26 39v76q0 27 6 38.5 t22 14.5q79 16 174 28.5t154 12.5q81 0 152 -18t110 -68q39 -47 54.5 -109t15.5 -213v-514zM705 250v186q-100 4 -138 4q-115 0 -171 -11.5t-76.5 -45t-20.5 -104.5q0 -85 23.5 -122.5t78.5 -37.5q58 0 150 39t154 92zM807 1116q0 -14 -107 -14q-29 0 -37 4q-10 5 -57 76 q-18 27 -88 118q-60 -78 -88 -118q-45 -68 -60 -76q-8 -4 -37 -4q-104 0 -104 14q0 5 8 19l84 118q94 131 113 144q12 10 84 10q71 0 84 -10q10 -7 48 -56.5t64 -87.5l84 -118q9 -16 9 -19z" unicode="â" horiz-adv-x="1030"/>
<glyph glyph-name="atilde" d="M893 59q0 -35 -9 -47t-36 -12h-74q-47 0 -58 9.5t-11 49.5v43q-174 -129 -332 -129q-128 0 -191 70.5t-63 212.5q0 225 149 283q61 23 172 35.5t265 13.5q0 58 -5 107.5t-16 76.5q-9 26 -40 41.5t-75 15.5q-114 0 -313 -53q-16 -4 -25 -4q-26 0 -26 39v76q0 27 6 38.5 t22 14.5q79 16 174 28.5t154 12.5q81 0 152 -18t110 -68q39 -47 54.5 -109t15.5 -213v-514zM705 250v186q-100 4 -138 4q-115 0 -171 -11.5t-76.5 -45t-20.5 -104.5q0 -85 23.5 -122.5t78.5 -37.5q58 0 150 39t154 92zM832 1298q0 -12 -16 -49q-64 -135 -174 -135 q-39 0 -72 8.5t-73 25t-60.5 23.5t-44.5 7q-26 0 -42.5 -10.5t-39.5 -39.5q-9 -13 -16 -17.5t-19 -4.5h-67q-16 0 -20.5 3t-4.5 11q0 17 25 60q69 133 172 133q31 0 64 -8t74 -21.5t70.5 -23t47.5 -9.5q36 0 67 49q5 9 10 12t21 3h72q26 0 26 -17z" unicode="ã" horiz-adv-x="1030"/>
<glyph glyph-name="adieresis" d="M893 59q0 -35 -9 -47t-36 -12h-74q-47 0 -58 9.5t-11 49.5v43q-174 -129 -332 -129q-128 0 -191 70.5t-63 212.5q0 225 149 283q61 23 172 35.5t265 13.5q0 58 -5 107.5t-16 76.5q-9 26 -40 41.5t-75 15.5q-114 0 -313 -53q-16 -4 -25 -4q-26 0 -26 39v76q0 27 6 38.5 t22 14.5q79 16 174 28.5t154 12.5q81 0 152 -18t110 -68q39 -47 54.5 -109t15.5 -213v-514zM705 250v186q-100 4 -138 4q-115 0 -171 -11.5t-76.5 -45t-20.5 -104.5q0 -85 23.5 -122.5t78.5 -37.5q58 0 150 39t154 92zM786 1137q0 -13 -10 -22t-21 -9h-131q-10 0 -19.5 9.5 t-9.5 21.5v137q0 13 9 22t20 9h131q12 0 21.5 -8.5t9.5 -22.5v-137zM466 1137q0 -12 -8.5 -21.5t-19.5 -9.5h-133q-12 0 -20.5 9.5t-8.5 21.5v137q0 13 8 22t21 9h133q12 0 20 -9t8 -22v-137z" unicode="ä" horiz-adv-x="1030"/>
<glyph glyph-name="aring" d="M893 59q0 -35 -9 -47t-36 -12h-74q-47 0 -58 9.5t-11 49.5v43q-174 -129 -332 -129q-128 0 -191 70.5t-63 212.5q0 225 149 283q61 23 172 35.5t265 13.5q0 58 -5 107.5t-16 76.5q-9 26 -40 41.5t-75 15.5q-114 0 -313 -53q-16 -4 -25 -4q-26 0 -26 39v76q0 27 6 38.5 t22 14.5q79 16 174 28.5t154 12.5q81 0 152 -18t110 -68q39 -47 54.5 -109t15.5 -213v-514zM705 250v186q-100 4 -138 4q-115 0 -171 -11.5t-76.5 -45t-20.5 -104.5q0 -85 23.5 -122.5t78.5 -37.5q58 0 150 39t154 92zM698 1212q0 -65 -43.5 -111t-107.5 -46 q-62 0 -107 47.5t-45 109.5q0 66 44.5 112t107.5 46q40 0 75.5 -21t55.5 -57.5t20 -79.5zM624 1212q0 34 -22 58t-55 24t-55.5 -24.5t-22.5 -57.5t23 -56t55 -23q31 0 54 24t23 55z" unicode="å" horiz-adv-x="1030"/>
<glyph glyph-name="ae" d="M1466 539q0 -64 -7.5 -79.5t-41.5 -15.5h-524q0 -119 11.5 -193t56.5 -97q55 -29 149 -29q70 0 130 9.5t119.5 23.5t70.5 14q17 0 20 -61q2 -15 2 -50q0 -32 -7 -43t-36 -16q-158 -29 -301 -29q-105 0 -185.5 27t-123.5 74q-26 24 -41 61q-208 -162 -385 -162 q-128 0 -191 70.5t-63 212.5q0 225 149 283q61 23 172 35.5t265 13.5q0 58 -5 107.5t-16 76.5q-9 26 -40 41.5t-75 15.5q-114 0 -313 -53q-16 -4 -25 -4q-26 0 -26 39v76q0 27 6 38.5t22 14.5q79 16 174 28.5t154 12.5q77 0 146.5 -17t109.5 -61q94 80 283 80 q237 0 311 -137q36 -63 45.5 -131.5t9.5 -175.5zM1286 649q0 104 -37.5 141t-146.5 37q-89 0 -132.5 -16.5t-60 -62t-16.5 -140.5v-20h391q2 37 2 61zM717 256q-8 76 -8 180q-100 4 -142 4q-115 0 -171 -11.5t-76.5 -45t-20.5 -104.5q0 -85 23.5 -122.5t78.5 -37.5 q58 0 153 42t163 95z" unicode="æ" horiz-adv-x="1585"/>
<glyph glyph-name="ccedilla" d="M795 25q0 -24 -13.5 -30.5t-68.5 -12.5q-37 -5 -115 -9q-2 -2 -4 -5t-8 -9l-111 -149q-16 -22 -29 -28.5t-36 -6.5h-74q-35 0 -35 14q0 8 25 35l139 151q-141 8 -214.5 54t-102.5 150.5t-29 297.5q0 161 19.5 257.5t65 150.5t127 76t214.5 22q68 0 168 -10 q58 -6 70 -11.5t12 -29.5q0 -61 -9 -103q-5 -30 -28 -30q-12 0 -117 12t-158 12q-106 0 -139 -53q-31 -49 -31 -293q0 -67 1.5 -121t4.5 -84q4 -50 21 -81.5t51 -44.5t92 -13q53 0 155 12.5t120 12.5q12 0 20 -8q6 -8 11.5 -44.5t5.5 -80.5z" unicode="ç" horiz-adv-x="911"/>
<glyph glyph-name="egrave" d="M883 508q0 -63 -7.5 -78.5t-41.5 -15.5h-525q0 -112 11 -174.5t57 -85.5q56 -29 149 -29q70 0 129.5 9.5t119 23.5t71.5 14q15 0 20 -61q2 -15 2 -50q0 -32 -7 -43t-36 -16q-158 -29 -301 -29q-106 0 -189 27t-126 74q-48 51 -69 145t-21 252q0 143 12.5 226.5 t48.5 146.5q78 139 336 139q237 0 311 -137q37 -65 46.5 -144t9.5 -194zM702 649q0 105 -37.5 141.5t-148.5 36.5q-87 0 -131 -19t-60 -67t-16 -143v-41h391q2 37 2 92zM641 1169q0 -9 -9 -11.5t-48 -2.5h-59h-7v0q-24 0 -43 10q-12 9 -15.5 13t-19 24t-49.5 68t-38 53 q-45 63 -68.5 95.5t-28.5 39.5q-14 17 -14 31q0 10 7.5 15t29.5 6t86 1q58 0 70 -8q26 -22 190 -297q16 -27 16 -37z" unicode="è" horiz-adv-x="1001"/>
<glyph glyph-name="eacute" d="M883 508q0 -63 -7.5 -78.5t-41.5 -15.5h-525q0 -112 11 -174.5t57 -85.5q56 -29 149 -29q70 0 129.5 9.5t119 23.5t71.5 14q15 0 20 -61q2 -15 2 -50q0 -32 -7 -43t-36 -16q-158 -29 -301 -29q-106 0 -189 27t-126 74q-48 51 -69 145t-21 252q0 143 12.5 226.5 t48.5 146.5q78 139 336 139q237 0 311 -137q37 -65 46.5 -144t9.5 -194zM702 649q0 105 -37.5 141.5t-148.5 36.5q-87 0 -131 -19t-60 -67t-16 -143v-41h391q2 37 2 92zM803 1489q0 -14 -14 -31q-40 -55 -96 -135q-105 -147 -123 -158q-19 -10 -43 -10v0h-6h-60q-28 0 -39 1 t-14.5 3.5t-3.5 9.5q0 10 16 37q164 275 191 297q8 8 67 8q65 0 87.5 -1t30 -6t7.5 -15z" unicode="é" horiz-adv-x="1001"/>
<glyph glyph-name="ecircumflex" d="M883 508q0 -63 -7.5 -78.5t-41.5 -15.5h-525q0 -112 11 -174.5t57 -85.5q56 -29 149 -29q70 0 129.5 9.5t119 23.5t71.5 14q15 0 20 -61q2 -15 2 -50q0 -32 -7 -43t-36 -16q-158 -29 -301 -29q-106 0 -189 27t-126 74q-48 51 -69 145t-21 252q0 143 12.5 226.5 t48.5 146.5q78 139 336 139q237 0 311 -137q37 -65 46.5 -144t9.5 -194zM702 649q0 105 -37.5 141.5t-148.5 36.5q-87 0 -131 -19t-60 -67t-16 -143v-41h391q2 37 2 92zM810 1116q0 -14 -107 -14q-29 0 -37 4q-10 5 -57 76q-18 27 -88 118q-60 -78 -88 -118q-45 -68 -60 -76 q-8 -4 -37 -4q-104 0 -104 14q0 5 8 19l84 118q94 131 113 144q12 10 84 10q71 0 84 -10q10 -7 48 -56.5t64 -87.5l84 -118q9 -16 9 -19z" unicode="ê" horiz-adv-x="1001"/>
<glyph glyph-name="edieresis" d="M883 508q0 -63 -7.5 -78.5t-41.5 -15.5h-525q0 -112 11 -174.5t57 -85.5q56 -29 149 -29q70 0 129.5 9.5t119 23.5t71.5 14q15 0 20 -61q2 -15 2 -50q0 -32 -7 -43t-36 -16q-158 -29 -301 -29q-106 0 -189 27t-126 74q-48 51 -69 145t-21 252q0 143 12.5 226.5 t48.5 146.5q78 139 336 139q237 0 311 -137q37 -65 46.5 -144t9.5 -194zM702 649q0 105 -37.5 141.5t-148.5 36.5q-87 0 -131 -19t-60 -67t-16 -143v-41h391q2 37 2 92zM758 1137q0 -13 -10 -22t-21 -9h-131q-10 0 -19.5 9.5t-9.5 21.5v137q0 13 9 22t20 9h131 q12 0 21.5 -8.5t9.5 -22.5v-137zM438 1137q0 -12 -8.5 -21.5t-19.5 -9.5h-133q-12 0 -20.5 9.5t-8.5 21.5v137q0 13 8 22t21 9h133q12 0 20 -9t8 -22v-137z" unicode="ë" horiz-adv-x="1001"/>
<glyph glyph-name="igrave" d="M352 59q0 -35 -9 -47t-36 -12h-80q-47 0 -58 9.5t-11 49.5v838q0 35 9.5 45t43.5 10h96q45 0 45 -55v-838zM455 1169q0 -9 -9 -11.5t-48 -2.5h-59h-7v0q-24 0 -43 10q-12 9 -15.5 13t-19 24t-49.5 68t-38 53q-45 63 -68.5 95.5t-28.5 39.5q-14 17 -14 31q0 10 7.5 15 t29.5 6t86 1q58 0 70 -8q26 -22 190 -297q16 -27 16 -37z" unicode="ì" horiz-adv-x="510"/>
<glyph glyph-name="iacute" d="M352 59q0 -35 -9 -47t-36 -12h-80q-47 0 -58 9.5t-11 49.5v838q0 35 9.5 45t43.5 10h96q45 0 45 -55v-838zM475 1489q0 -14 -14 -31q-40 -55 -96 -135q-105 -147 -123 -158q-19 -10 -43 -10v0h-6h-60q-28 0 -39 1t-14.5 3.5t-3.5 9.5q0 10 16 37q164 275 191 297 q8 8 67 8q65 0 87.5 -1t30 -6t7.5 -15z" unicode="í" horiz-adv-x="510"/>
<glyph glyph-name="icircumflex" d="M352 59q0 -35 -9 -47t-36 -12h-80q-47 0 -58 9.5t-11 49.5v838q0 35 9.5 45t43.5 10h96q45 0 45 -55v-838zM543 1116q0 -14 -107 -14q-29 0 -37 4q-10 5 -57 76q-18 27 -88 118q-60 -78 -88 -118q-45 -68 -60 -76q-8 -4 -37 -4q-104 0 -104 14q0 5 8 19l84 118 q94 131 113 144q12 10 84 10q71 0 84 -10q10 -7 48 -56.5t64 -87.5l84 -118q9 -16 9 -19z" unicode="î" horiz-adv-x="510"/>
<glyph glyph-name="idieresis" d="M352 59q0 -35 -9 -47t-36 -12h-80q-47 0 -58 9.5t-11 49.5v838q0 35 9.5 45t43.5 10h96q45 0 45 -55v-838zM510 1137q0 -13 -10 -22t-21 -9h-131q-10 0 -19.5 9.5t-9.5 21.5v137q0 13 9 22t20 9h131q12 0 21.5 -8.5t9.5 -22.5v-137zM190 1137q0 -12 -8.5 -21.5 t-19.5 -9.5h-133q-12 0 -20.5 9.5t-8.5 21.5v137q0 13 8 22t21 9h133q12 0 20 -9t8 -22v-137z" unicode="ï" horiz-adv-x="510"/>
<glyph glyph-name="ntilde" d="M924 59q0 -34 -9.5 -46.5t-35.5 -12.5h-72q-49 0 -60.5 9.5t-11.5 49.5v551q0 163 -20 189q-25 30 -92 30q-52 0 -97.5 -16t-88.5 -45.5t-101 -75.5v-633q0 -35 -9 -47t-36 -12h-72q-48 0 -60 9.5t-12 49.5v838q0 35 10 45t44 10h90q45 0 45 -55v-33q78 58 143 89.5 t168 31.5q80 0 136 -23t86 -60t42.5 -82.5t12.5 -98.5v-662zM858 1298q0 -12 -16 -49q-64 -135 -174 -135q-39 0 -72 8.5t-73 25t-60.5 23.5t-44.5 7q-26 0 -42.5 -10.5t-39.5 -39.5q-9 -13 -16 -17.5t-19 -4.5h-67q-16 0 -20.5 3t-4.5 11q0 17 25 60q69 133 172 133 q31 0 64 -8t74 -21.5t70.5 -23t47.5 -9.5q36 0 67 49q5 9 10 12t21 3h72q26 0 26 -17z" unicode="ñ" horiz-adv-x="1061"/>
<glyph glyph-name="ograve" d="M979 477q0 -138 -24.5 -225t-80.5 -154q-100 -125 -325 -125q-111 0 -193 31t-135 94q-54 66 -78 154.5t-24 224.5q0 94 10.5 162.5t32 120t59.5 98.5q105 125 328 125q224 0 325 -125q39 -48 62 -100.5t33 -119.5t10 -161zM788 477q0 185 -40 264q-26 51 -66 68.5 t-133 17.5t-132.5 -17t-66.5 -69q-41 -81 -41 -264t41 -264q25 -49 67 -66.5t132 -17.5t132 17.5t67 66.5q40 79 40 264zM643 1169q0 -9 -9 -11.5t-48 -2.5h-59h-7v0q-24 0 -43 10q-12 9 -15.5 13t-19 24t-49.5 68t-38 53q-45 63 -68.5 95.5t-28.5 39.5q-14 17 -14 31 q0 10 7.5 15t29.5 6t86 1q58 0 70 -8q26 -22 190 -297q16 -27 16 -37z" unicode="ò" horiz-adv-x="1098"/>
<glyph glyph-name="oacute" d="M979 477q0 -138 -24.5 -225t-80.5 -154q-100 -125 -325 -125q-111 0 -193 31t-135 94q-54 66 -78 154.5t-24 224.5q0 94 10.5 162.5t32 120t59.5 98.5q105 125 328 125q224 0 325 -125q39 -48 62 -100.5t33 -119.5t10 -161zM788 477q0 185 -40 264q-26 51 -66 68.5 t-133 17.5t-132.5 -17t-66.5 -69q-41 -81 -41 -264t41 -264q25 -49 67 -66.5t132 -17.5t132 17.5t67 66.5q40 79 40 264zM850 1489q0 -14 -14 -31q-40 -55 -96 -135q-105 -147 -123 -158q-19 -10 -43 -10v0h-6h-60q-28 0 -39 1t-14.5 3.5t-3.5 9.5q0 10 16 37 q164 275 191 297q8 8 67 8q65 0 87.5 -1t30 -6t7.5 -15z" unicode="ó" horiz-adv-x="1098"/>
<glyph glyph-name="ocircumflex" d="M979 477q0 -138 -24.5 -225t-80.5 -154q-100 -125 -325 -125q-111 0 -193 31t-135 94q-54 66 -78 154.5t-24 224.5q0 94 10.5 162.5t32 120t59.5 98.5q105 125 328 125q224 0 325 -125q39 -48 62 -100.5t33 -119.5t10 -161zM788 477q0 185 -40 264q-26 51 -66 68.5 t-133 17.5t-132.5 -17t-66.5 -69q-41 -81 -41 -264t41 -264q25 -49 67 -66.5t132 -17.5t132 17.5t67 66.5q40 79 40 264zM825 1116q0 -14 -107 -14q-29 0 -37 4q-10 5 -57 76q-18 27 -88 118q-60 -78 -88 -118q-45 -68 -60 -76q-8 -4 -37 -4q-104 0 -104 14q0 5 8 19l84 118 q94 131 113 144q12 10 84 10q71 0 84 -10q10 -7 48 -56.5t64 -87.5l84 -118q9 -16 9 -19z" unicode="ô" horiz-adv-x="1098"/>
<glyph glyph-name="otilde" d="M979 477q0 -138 -24.5 -225t-80.5 -154q-100 -125 -325 -125q-111 0 -193 31t-135 94q-54 66 -78 154.5t-24 224.5q0 94 10.5 162.5t32 120t59.5 98.5q105 125 328 125q224 0 325 -125q39 -48 62 -100.5t33 -119.5t10 -161zM788 477q0 185 -40 264q-26 51 -66 68.5 t-133 17.5t-132.5 -17t-66.5 -69q-41 -81 -41 -264t41 -264q25 -49 67 -66.5t132 -17.5t132 17.5t67 66.5q40 79 40 264zM858 1298q0 -12 -16 -49q-64 -135 -174 -135q-39 0 -72 8.5t-73 25t-60.5 23.5t-44.5 7q-26 0 -42.5 -10.5t-39.5 -39.5q-9 -13 -16 -17.5t-19 -4.5 h-67q-16 0 -20.5 3t-4.5 11q0 17 25 60q69 133 172 133q31 0 64 -8t74 -21.5t70.5 -23t47.5 -9.5q36 0 67 49q5 9 10 12t21 3h72q26 0 26 -17z" unicode="õ" horiz-adv-x="1098"/>
<glyph glyph-name="odieresis" d="M979 477q0 -138 -24.5 -225t-80.5 -154q-100 -125 -325 -125q-111 0 -193 31t-135 94q-54 66 -78 154.5t-24 224.5q0 94 10.5 162.5t32 120t59.5 98.5q105 125 328 125q224 0 325 -125q39 -48 62 -100.5t33 -119.5t10 -161zM788 477q0 185 -40 264q-26 51 -66 68.5 t-133 17.5t-132.5 -17t-66.5 -69q-41 -81 -41 -264t41 -264q25 -49 67 -66.5t132 -17.5t132 17.5t67 66.5q40 79 40 264zM809 1137q0 -13 -10 -22t-21 -9h-131q-10 0 -19.5 9.5t-9.5 21.5v137q0 13 9 22t20 9h131q12 0 21.5 -8.5t9.5 -22.5v-137zM489 1137q0 -12 -8.5 -21.5 t-19.5 -9.5h-133q-12 0 -20.5 9.5t-8.5 21.5v137q0 13 8 22t21 9h133q12 0 20 -9t8 -22v-137z" unicode="ö" horiz-adv-x="1098"/>
<glyph glyph-name="divide" d="M645 760q0 -44 -28.5 -73.5t-69.5 -29.5q-40 0 -69 31t-29 72q0 43 27 72.5t69 29.5q20 0 37.5 -7.5t32.5 -22.5t22.5 -33.5t7.5 -38.5zM975 432h-825v117h825v-117zM645 221q0 -43 -28.5 -72.5t-69.5 -29.5q-39 0 -68.5 30.5t-29.5 71.5q0 44 27 73.5t69 29.5 q41 0 70.5 -31.5t29.5 -71.5z" unicode="÷" horiz-adv-x="1124"/>
<glyph glyph-name="oslash" d="M971 913q0 -12 -8 -20l-74 -90q35 -57 51 -135t16 -191q0 -138 -24 -224.5t-80 -154.5q-54 -64 -130.5 -94.5t-184.5 -30.5q-165 0 -265 74l-49 -59q-12 -17 -22 -17t-23 11l-55 55q-4 8 -4 14q0 9 6 21l61 75q-35 61 -51 139t-16 191q0 94 10.5 162.5t32 120t59.5 98.5 q54 65 130.5 95t185.5 30q168 0 268 -78l65 80q9 8 19 8q8 0 20 -10l47 -43q15 -14 15 -27zM707 784q-22 23 -60 33t-110 10q-91 0 -131.5 -17t-67.5 -69q-41 -78 -41 -264q0 -55 4 -103t10 -77zM776 477q0 105 -12 172l-393 -481q43 -39 166 -39q90 0 131.5 17.5t66.5 66.5 q41 78 41 264z" unicode="ø" horiz-adv-x="1090"/>
<glyph glyph-name="ugrave" d="M913 55q0 -36 -10 -45.5t-43 -9.5h-90q-45 0 -45 55v33q-52 -39 -89 -62t-94 -41t-126 -18q-154 0 -216.5 76.5t-62.5 187.5v662q0 34 9 46.5t36 12.5h74q48 0 59 -9.5t11 -49.5v-551q0 -163 20 -188q23 -31 92 -31q77 0 137 32t150 105v633q0 34 9 46.5t36 12.5h74 q48 0 58.5 -9t10.5 -50v-838zM668 1169q0 -9 -9 -11.5t-48 -2.5h-59h-7v0q-24 0 -43 10q-12 9 -15.5 13t-19 24t-49.5 68t-38 53q-45 63 -68.5 95.5t-28.5 39.5q-14 17 -14 31q0 10 7.5 15t29.5 6t86 1q58 0 70 -8q26 -22 190 -297q16 -27 16 -37z" unicode="ù" horiz-adv-x="1061"/>
<glyph glyph-name="uacute" d="M913 55q0 -36 -10 -45.5t-43 -9.5h-90q-45 0 -45 55v33q-52 -39 -89 -62t-94 -41t-126 -18q-154 0 -216.5 76.5t-62.5 187.5v662q0 34 9 46.5t36 12.5h74q48 0 59 -9.5t11 -49.5v-551q0 -163 20 -188q23 -31 92 -31q77 0 137 32t150 105v633q0 34 9 46.5t36 12.5h74 q48 0 58.5 -9t10.5 -50v-838zM803 1489q0 -14 -14 -31q-40 -55 -96 -135q-105 -147 -123 -158q-19 -10 -43 -10v0h-6h-60q-28 0 -39 1t-14.5 3.5t-3.5 9.5q0 10 16 37q164 275 191 297q8 8 67 8q65 0 87.5 -1t30 -6t7.5 -15z" unicode="ú" horiz-adv-x="1061"/>
<glyph glyph-name="ucircumflex" d="M913 55q0 -36 -10 -45.5t-43 -9.5h-90q-45 0 -45 55v33q-52 -39 -89 -62t-94 -41t-126 -18q-154 0 -216.5 76.5t-62.5 187.5v662q0 34 9 46.5t36 12.5h74q48 0 59 -9.5t11 -49.5v-551q0 -163 20 -188q23 -31 92 -31q77 0 137 32t150 105v633q0 34 9 46.5t36 12.5h74 q48 0 58.5 -9t10.5 -50v-838zM796 1116q0 -14 -107 -14q-29 0 -37 4q-10 5 -57 76q-18 27 -88 118q-60 -78 -88 -118q-45 -68 -60 -76q-8 -4 -37 -4q-104 0 -104 14q0 5 8 19l84 118q94 131 113 144q12 10 84 10q71 0 84 -10q10 -7 48 -56.5t64 -87.5l84 -118q9 -16 9 -19z " unicode="û" horiz-adv-x="1061"/>
<glyph glyph-name="udieresis" d="M913 55q0 -36 -10 -45.5t-43 -9.5h-90q-45 0 -45 55v33q-52 -39 -89 -62t-94 -41t-126 -18q-154 0 -216.5 76.5t-62.5 187.5v662q0 34 9 46.5t36 12.5h74q48 0 59 -9.5t11 -49.5v-551q0 -163 20 -188q23 -31 92 -31q77 0 137 32t150 105v633q0 34 9 46.5t36 12.5h74 q48 0 58.5 -9t10.5 -50v-838zM775 1137q0 -13 -10 -22t-21 -9h-131q-10 0 -19.5 9.5t-9.5 21.5v137q0 13 9 22t20 9h131q12 0 21.5 -8.5t9.5 -22.5v-137zM455 1137q0 -12 -8.5 -21.5t-19.5 -9.5h-133q-12 0 -20.5 9.5t-8.5 21.5v137q0 13 8 22t21 9h133q12 0 20 -9t8 -22 v-137z" unicode="ü" horiz-adv-x="1061"/>
<glyph glyph-name="yacute" d="M909 928q0 -2 -18 -58l-434 -1241q-9 -25 -21.5 -32t-46.5 -7h-102q-21 0 -27 4.5t-6 14.5q0 8 12 37l156 383l-340 882q-4 18 -4 21q0 20 37 20h90q45 0 59 -5.5t21 -28.5l219 -668l205 645q12 37 26 47t51 10h88q35 0 35 -24zM737 1489q0 -14 -14 -31q-40 -55 -96 -135 q-105 -147 -123 -158q-19 -10 -43 -10v0h-6h-60q-28 0 -39 1t-14.5 3.5t-3.5 9.5q0 10 16 37q164 275 191 297q8 8 67 8q65 0 87.5 -1t30 -6t7.5 -15z" unicode="ý" horiz-adv-x="967"/>
<glyph glyph-name="thorn" d="M969 496q0 -78 -5.5 -144t-17.5 -112t-31 -82q-46 -89 -139.5 -137t-218.5 -48q-106 0 -221 31v-360q0 -35 -9 -47.5t-36 -12.5h-72q-48 0 -60 9.5t-12 50.5v1669q0 35 10 45t44 10h90q45 0 45 -55v-451q99 57 177.5 89t160.5 32q67 0 115 -18.5t85 -65.5 q53 -62 74 -150.5t21 -252.5zM778 489q0 65 -6.5 136t-13.5 106q-11 47 -40 71.5t-75 24.5q-59 0 -149.5 -40t-157.5 -85v-538q112 -39 227 -39q62 0 105 18q110 48 110 346z" unicode="þ" horiz-adv-x="1087"/>
<glyph glyph-name="dotlessi" d="M352 59q0 -35 -9 -47t-36 -12h-80q-47 0 -58 9.5t-11 49.5v838q0 35 9.5 45t43.5 10h96q45 0 45 -55v-838z" unicode="ı" horiz-adv-x="510"/>
<glyph glyph-name="circumflex" d="M578 1116q0 -14 -107 -14q-29 0 -37 4q-10 5 -57 76q-18 27 -88 118q-60 -78 -88 -118q-45 -68 -60 -76q-8 -4 -37 -4q-104 0 -104 14q0 5 8 19l84 118q94 131 113 144q12 10 84 10q71 0 84 -10q10 -7 48 -56.5t64 -87.5l84 -118q9 -16 9 -19z" unicode="ˆ" horiz-adv-x="578"/>
<glyph glyph-name="ring" d="M303 1212q0 -65 -43.5 -111t-107.5 -46q-62 0 -107 47.5t-45 109.5q0 66 44.5 112t107.5 46q40 0 75.5 -21t55.5 -57.5t20 -79.5zM229 1212q0 34 -22 58t-55 24t-55.5 -24.5t-22.5 -57.5t23 -56t55 -23q31 0 54 24t23 55z" unicode="˚" horiz-adv-x="303"/>
<glyph glyph-name="tilde" d="M649 1298q0 -12 -16 -49q-64 -135 -174 -135q-39 0 -72 8.5t-73 25t-60.5 23.5t-44.5 7q-26 0 -42.5 -10.5t-39.5 -39.5q-9 -13 -16 -17.5t-19 -4.5h-67q-16 0 -20.5 3t-4.5 11q0 17 25 60q69 133 172 133q31 0 64 -8t74 -21.5t70.5 -23t47.5 -9.5q36 0 67 49q5 9 10 12 t21 3h72q26 0 26 -17z" unicode="˜" horiz-adv-x="649"/>
<glyph glyph-name="periodcentered" d="M391 692q0 -16 -10 -26l-111 -111q-10 -10 -24 -10q-17 0 -27 10l-110 111q-11 9 -11 24q0 18 11 27l110 110q9 11 25 11q17 0 26 -11l111 -110q10 -10 10 -25z" unicode="∙" horiz-adv-x="489"/>
</font>
</defs>
</svg>
